<svg width="86" height="86" viewBox="0 0 86 86" fill="none" xmlns="http://www.w3.org/2000/svg">
<rect x="1.6" y="1.6" width="82.8" height="82.8" rx="3.73333" fill="white"/>
<rect x="1.6" y="1.6" width="82.8" height="82.8" rx="3.73333" stroke="#2B2B2B" stroke-width="3.2"/>
<path fill-rule="evenodd" clip-rule="evenodd" d="M50.4414 67.8063V59.521C46.6721 61.703 42.3937 62.8521 38.0383 62.8521C33.6829 62.8521 29.4046 61.703 25.6352 59.521V67.8063H50.4414ZM66.3526 19.647C67.2831 20.5774 67.8058 21.8393 67.8058 23.1551C67.8058 24.7427 67.0368 26.2311 65.7469 27.1737C67.1112 30.5969 67.8058 34.3179 67.8058 38.0388C67.8058 47.614 63.1918 56.6435 55.4027 62.2001V65.3256H52.922V60.9101C53.7903 60.3644 54.6089 59.7442 55.4027 59.1241C64.4817 51.583 67.7313 39.1055 63.4399 28.1163H62.8445C61.9343 28.1207 61.0405 27.8741 60.2613 27.4038C59.482 26.9335 58.8474 26.2576 58.427 25.4502C58.0067 24.6429 57.8169 23.7354 57.8785 22.8272C57.9402 21.9191 58.2508 21.0455 58.7763 20.3024C59.2724 19.6326 59.9174 19.0869 60.6616 18.7148C61.3313 18.3675 62.0755 18.1938 62.8445 18.1938C64.1603 18.1938 65.4222 18.7165 66.3526 19.647ZM56.3727 45.6331C57.37 43.2254 57.8833 40.6449 57.8833 38.0388C57.8833 32.7756 55.7925 27.728 52.0708 24.0063C48.3492 20.2847 43.3015 18.1938 38.0383 18.1938C32.7751 18.1938 27.7275 20.2847 24.0058 24.0063C20.2842 27.728 18.1934 32.7756 18.1934 38.0388C18.1934 43.302 20.2842 48.3497 24.0058 52.0713C27.7275 55.793 32.7751 57.8838 38.0383 57.8838C40.6444 57.8838 43.225 57.3705 45.6327 56.3732C48.0404 55.3759 50.2281 53.9141 52.0708 52.0713C53.9136 50.2285 55.3754 48.0408 56.3727 45.6331ZM41.094 39.3045C41.2603 38.9032 41.3458 38.4732 41.3458 38.0388C41.3458 37.1616 40.9973 36.3203 40.3771 35.7001C39.7568 35.0798 38.9155 34.7313 38.0383 34.7313C37.1611 34.7313 36.3198 35.0798 35.6996 35.7001C35.0793 36.3203 34.7308 37.1616 34.7308 38.0388C34.7308 38.916 35.0793 39.7573 35.6996 40.3776C36.3198 40.9978 37.1611 41.3463 38.0383 41.3463C38.4727 41.3463 38.9028 41.2608 39.304 41.0945C39.7053 40.9283 40.0699 40.6847 40.3771 40.3776C40.6842 40.0704 40.9278 39.7058 41.094 39.3045Z" fill="#2B2B2B"/>
</svg>
