<svg width="86" height="86" viewBox="0 0 86 86" fill="none" xmlns="http://www.w3.org/2000/svg">
<rect x="1.6" y="1.6" width="82.8" height="82.8" rx="3.73333" fill="white"/>
<rect x="1.6" y="1.6" width="82.8" height="82.8" rx="3.73333" stroke="#2B2B2B" stroke-width="3.2"/>
<path d="M35.4865 36.2209H21.652C20.7347 36.2209 19.855 36.5853 19.2064 37.2339C18.5577 37.8825 18.1934 38.7622 18.1934 39.6795V46.5967C18.1934 47.514 18.5577 48.3937 19.2064 49.0424C19.855 49.691 20.7347 50.0554 21.652 50.0554H23.3813V56.9726C23.3813 57.4313 23.5635 57.8711 23.8878 58.1954C24.2121 58.5197 24.652 58.7019 25.1106 58.7019H28.5692C29.0279 58.7019 29.4677 58.5197 29.792 58.1954C30.1163 57.8711 30.2985 57.4313 30.2985 56.9726V50.0554H35.4865L44.133 56.9726V29.3036L35.4865 36.2209ZM51.9149 43.1381C51.9149 46.0952 50.2548 48.7757 47.5917 50.0554V36.2209C50.2375 37.5179 51.9149 40.1983 51.9149 43.1381Z" fill="#2B2B2B"/>
<path d="M60.1448 43C60.1448 36.6233 56.2469 31.1627 50.7145 28.8546L49.2415 32.3932C53.3909 34.1266 56.3098 38.222 56.3098 43C56.3098 47.787 53.3909 51.8735 49.2325 53.6069L50.7055 57.1455C56.2469 54.8373 60.1448 49.3767 60.1448 43ZM53.6603 21.7773L52.1784 25.316C59.1029 28.1989 63.9708 35.0247 63.9708 43C63.9708 50.9664 59.1029 57.8011 52.1784 60.6841L53.6513 64.2227C61.968 60.756 67.8058 52.5651 67.8058 43C67.8058 33.435 61.968 25.2441 53.6603 21.7773Z" fill="#2B2B2B"/>
</svg>
