<svg width="86" height="86" viewBox="0 0 86 86" fill="none" xmlns="http://www.w3.org/2000/svg">
<rect x="1.6" y="1.6" width="82.8" height="82.8" rx="3.73333" fill="white"/>
<rect x="1.6" y="1.6" width="82.8" height="82.8" rx="3.73333" stroke="#2B2B2B" stroke-width="3.2"/>
<path d="M60.3639 26.2062C57.6104 26.2062 55.4027 28.4139 55.4027 31.1674V47.9364C53.8151 49.3504 52.922 51.3845 52.922 53.493C52.922 57.6108 56.2461 60.9349 60.3639 60.9349C64.4817 60.9349 67.8058 57.6108 67.8058 53.493C67.8058 51.3845 66.9127 49.3504 65.3251 47.9612V31.1674C65.3251 28.4139 63.1174 26.2062 60.3639 26.2062ZM60.3639 28.6868C61.7282 28.6868 62.8445 29.8031 62.8445 31.1674V33.648H57.8833V31.1674C57.8833 29.8031 58.9996 28.6868 60.3639 28.6868ZM33.0771 22.5845L31.2166 24.6682C31.2166 24.6682 28.0414 28.2651 24.8414 32.9287C21.6414 37.5922 18.1934 43.1736 18.1934 48.5318C18.1934 56.7426 24.8662 63.4155 33.0771 63.4155C41.2879 63.4155 47.9608 56.7426 47.9608 48.5318C47.9608 43.1736 44.5127 37.5922 41.3127 32.9287C38.1127 28.2651 34.9375 24.6682 34.9375 24.6682L33.0771 22.5845ZM33.0771 30.3488C34.1686 31.6387 35.1608 32.7054 37.2445 35.7318C40.2461 40.0977 42.9996 45.6542 42.9996 48.5318C42.9996 54.0387 38.5841 58.4542 33.0771 58.4542C27.5701 58.4542 23.1546 54.0387 23.1546 48.5318C23.1546 45.6542 25.9081 40.0977 28.9096 35.7318C30.9934 32.7054 31.9856 31.6387 33.0771 30.3488Z" fill="#2B2B2B"/>
</svg>
