<svg width="86" height="86" viewBox="0 0 86 86" fill="none" xmlns="http://www.w3.org/2000/svg">
<rect x="1.6" y="1.6" width="82.8" height="82.8" rx="3.73333" fill="white"/>
<rect x="1.6" y="1.6" width="82.8" height="82.8" rx="3.73333" stroke="#2B2B2B" stroke-width="3.2"/>
<path d="M62.3775 19.0183L64.6652 21.2275L20.4811 66.9816L18.1934 64.7724L62.3775 19.0183Z" fill="#2B2B2B"/>
<path d="M45.486 34.2837H24.2359V36.8279H28.6883V41.9163H24.2359V56.2889L38.1155 41.9163H31.2325V36.8279H43.0291L45.486 34.2837Z" fill="#2B2B2B"/>
<path d="M46.9575 41.9163H60.8091V36.8279H51.8714L54.3284 34.2837H67.8058V36.8279H63.3534V41.9163H67.8058V59.0899H59.7995C57.4329 53.8397 52.1537 50.1851 46.0208 50.1851C39.8879 50.1851 34.6088 53.8397 32.2422 59.0899H30.3732L46.9575 41.9163Z" fill="#2B2B2B"/>
</svg>
