<svg width="86" height="86" viewBox="0 0 86 86" fill="none" xmlns="http://www.w3.org/2000/svg">
<rect x="1.6" y="1.6" width="82.8" height="82.8" rx="3.73333" fill="white"/>
<rect x="1.6" y="1.6" width="82.8" height="82.8" rx="3.73333" stroke="#2B2B2B" stroke-width="3.2"/>
<path d="M42.0345 18.2596C42.3529 18.1634 42.6938 18.1722 43.0069 18.2846C43.32 18.397 43.5886 18.6071 43.773 18.8839L48.6165 26.1481L57.3856 22.4499C57.6721 22.3294 57.988 22.2979 58.2926 22.3592C58.5972 22.4206 58.8763 22.5721 59.0938 22.794C59.3113 23.0159 59.457 23.298 59.5122 23.6038C59.5674 23.9096 59.5294 24.2249 59.4032 24.5088L56.2404 31.6303H64.1888C64.4834 31.6305 64.7719 31.7145 65.0205 31.8726C65.269 32.0308 65.4674 32.2564 65.5923 32.5232C65.7173 32.79 65.7636 33.0869 65.7259 33.3791C65.6882 33.6713 65.5681 33.9466 65.3795 34.173L61.0591 39.3576L67.4219 46.63C67.6181 46.8541 67.7456 47.13 67.7891 47.4246C67.8326 47.7192 67.7904 48.0202 67.6674 48.2914C67.5444 48.5627 67.3459 48.7928 67.0956 48.9542C66.8453 49.1156 66.5539 49.2015 66.256 49.2016H56.9577C56.5465 49.2016 56.1522 49.0383 55.8614 48.7475C55.5706 48.4568 55.4073 48.0624 55.4073 47.6512C55.4073 47.24 55.5706 46.8457 55.8614 46.5549C56.1522 46.2642 56.5465 46.1008 56.9577 46.1008H62.8389L57.8549 40.4036C57.6117 40.1259 57.4757 39.7705 57.4711 39.4014C57.4666 39.0323 57.5939 38.6738 57.8301 38.3901L60.8792 34.7312H53.8528C53.5944 34.7311 53.3402 34.6665 53.1131 34.5432C52.8861 34.4198 52.6935 34.2417 52.5528 34.0251C52.4121 33.8084 52.3278 33.56 52.3075 33.3024C52.2872 33.0448 52.3317 32.7863 52.4367 32.5503L54.9794 26.8303L48.6393 29.5032C48.3068 29.6436 47.9358 29.6637 47.5901 29.5599C47.2444 29.4561 46.9458 29.235 46.7457 28.9347L44.0335 24.8644V31.1135C44.0335 31.5247 43.8702 31.9191 43.5794 32.2098C43.2886 32.5006 42.8943 32.6639 42.4831 32.6639C42.0719 32.6639 41.6775 32.5006 41.3868 32.2098C41.096 31.9191 40.9327 31.5247 40.9327 31.1135V19.7439C40.9327 19.411 41.0398 19.0869 41.2382 18.8196C41.4366 18.5523 41.7158 18.3559 42.0345 18.2596ZM22.6317 43L23.2849 39.3989C23.5232 38.0886 24.2139 36.9036 25.2366 36.0505C26.2593 35.1974 27.5491 34.7305 28.8808 34.7312H41.619C44.3663 34.7312 46.7209 36.695 47.2108 39.3989L47.8723 43.0289C47.97 43.0122 48.0688 43.0026 48.1679 43H50.7519C51.1631 43 51.5575 43.1634 51.8482 43.4541C52.139 43.7449 52.3024 44.1392 52.3024 44.5504C52.3024 44.9616 52.139 45.356 51.8482 45.6467C51.5575 45.9375 51.1631 46.1008 50.7519 46.1008H49.8858C50.6322 46.6253 51.2415 47.3217 51.6621 48.1313C52.0827 48.9409 52.3023 49.8398 52.3024 50.752V64.1889C52.3024 65.1484 51.9212 66.0685 51.2428 66.747C50.5643 67.4254 49.6442 67.8065 48.6847 67.8065H45.5839C44.6245 67.8065 43.7043 67.4254 43.0259 66.747C42.3474 66.0685 41.9663 65.1484 41.9663 64.1889V61.6049H28.5294V64.1889C28.5294 65.1484 28.1483 66.0685 27.4698 66.747C26.7914 67.4254 25.8712 67.8065 24.9118 67.8065H21.811C20.8515 67.8065 19.9314 67.4254 19.2529 66.747C18.5745 66.0685 18.1934 65.1484 18.1934 64.1889V60.5713C18.1934 60.4831 18.2003 60.397 18.214 60.3129C18.2017 60.2273 18.1948 60.141 18.1934 60.0545V50.752C18.1934 48.8295 19.1484 47.1303 20.6079 46.1008H19.7438C19.3326 46.1008 18.9382 45.9375 18.6475 45.6467C18.3567 45.356 18.1934 44.9616 18.1934 44.5504C18.1934 44.1392 18.3567 43.7449 18.6475 43.4541C18.9382 43.1634 19.3326 43 19.7438 43H22.6317ZM26.3361 39.9529L25.4079 45.0672H45.0898L44.1596 39.9529C44.0512 39.3576 43.7373 38.8193 43.2726 38.4317C42.808 38.0441 42.222 37.8319 41.6169 37.832H28.8808C28.2758 37.8319 27.6898 38.0441 27.2252 38.4317C26.7605 38.8193 26.4445 39.3576 26.3361 39.9529ZM49.2015 61.6049H45.0671V64.1889C45.0671 64.4742 45.2986 64.7057 45.5839 64.7057H48.6847C48.8218 64.7057 48.9532 64.6513 49.0502 64.5544C49.1471 64.4574 49.2015 64.326 49.2015 64.1889V61.6049ZM21.2942 64.1889C21.2942 64.4742 21.5257 64.7057 21.811 64.7057H24.9118C25.0489 64.7057 25.1803 64.6513 25.2772 64.5544C25.3742 64.4574 25.4286 64.326 25.4286 64.1889V61.6049H21.2942V64.1889ZM44.0335 55.4033C44.5818 55.4033 45.1076 55.1855 45.4952 54.7978C45.8829 54.4101 46.1007 53.8843 46.1007 53.3361C46.1007 52.7878 45.8829 52.262 45.4952 51.8743C45.1076 51.4866 44.5818 51.2689 44.0335 51.2689C43.4852 51.2689 42.9594 51.4866 42.5718 51.8743C42.1841 52.262 41.9663 52.7878 41.9663 53.3361C41.9663 53.8843 42.1841 54.4101 42.5718 54.7978C42.9594 55.1855 43.4852 55.4033 44.0335 55.4033ZM28.5294 53.3361C28.5294 52.7878 28.3116 52.262 27.9239 51.8743C27.5363 51.4866 27.0105 51.2689 26.4622 51.2689C25.9139 51.2689 25.3881 51.4866 25.0005 51.8743C24.6128 52.262 24.395 52.7878 24.395 53.3361C24.395 53.8843 24.6128 54.4101 25.0005 54.7978C25.3881 55.1855 25.9139 55.4033 26.4622 55.4033C27.0105 55.4033 27.5363 55.1855 27.9239 54.7978C28.3116 54.4101 28.5294 53.8843 28.5294 53.3361ZM32.147 53.3361C31.7358 53.3361 31.3415 53.4994 31.0507 53.7902C30.76 54.0809 30.5966 54.4753 30.5966 54.8865C30.5966 55.2977 30.76 55.692 31.0507 55.9828C31.3415 56.2735 31.7358 56.4369 32.147 56.4369H38.3487C38.7599 56.4369 39.1542 56.2735 39.445 55.9828C39.7357 55.692 39.8991 55.2977 39.8991 54.8865C39.8991 54.4753 39.7357 54.0809 39.445 53.7902C39.1542 53.4994 38.7599 53.3361 38.3487 53.3361H32.147Z" fill="#2B2B2B"/>
</svg>
