<svg width="86" height="86" viewBox="0 0 86 86" fill="none" xmlns="http://www.w3.org/2000/svg">
<rect x="1.6" y="1.6" width="82.8" height="82.8" rx="3.73333" fill="white"/>
<rect x="1.6" y="1.6" width="82.8" height="82.8" rx="3.73333" stroke="#2B2B2B" stroke-width="3.2"/>
<path fill-rule="evenodd" clip-rule="evenodd" d="M45.5449 54.8878L52.0139 56.5007C51.3854 56.344 50.841 55.8759 50.4119 55.1231C49.9828 54.3703 49.6774 53.3475 49.513 52.1133C49.3487 50.879 49.3287 49.4573 49.4541 47.9294C49.5796 46.4016 49.848 44.7974 50.2442 43.2086C50.6403 41.6198 51.1564 40.0774 51.7629 38.6694C52.3694 37.2615 53.0545 36.0157 53.7791 35.003C54.5037 33.9903 55.2535 33.2307 55.9858 32.7675C56.7181 32.3042 57.4185 32.1465 58.0471 32.3032L45.8153 29.2535L45.5449 30.3381V54.8878ZM45.5449 30.3351L45.8146 29.2533C45.7261 29.2313 45.6362 29.2154 45.5449 29.2058V30.3351Z" fill="#2B2B2B"/>
<path fill-rule="evenodd" clip-rule="evenodd" d="M30.8813 28.0596C37.7678 28.0596 43.3504 25.851 43.3504 23.1267C43.3504 20.4024 37.7678 18.1938 30.8813 18.1938C23.9947 18.1938 18.4121 20.4024 18.4121 23.1267C18.4121 25.851 23.9947 28.0596 30.8813 28.0596ZM38.1443 24.1132C39.5216 24.1132 40.6381 23.6715 40.6381 23.1266C40.6381 22.5818 39.5216 22.1401 38.1443 22.1401C36.767 22.1401 35.6505 22.5818 35.6505 23.1266C35.6505 23.6715 36.767 24.1132 38.1443 24.1132Z" fill="#2B2B2B"/>
<ellipse cx="59.787" cy="42.859" rx="12.4692" ry="4.93286" transform="rotate(104 59.787 42.859)" fill="#2B2B2B"/>
<path fill-rule="evenodd" clip-rule="evenodd" d="M43.3504 46.1467V54.3682H18.4121V46.1467C18.4121 46.7945 18.7346 47.436 19.3613 48.0345C19.9879 48.6329 20.9064 49.1767 22.0642 49.6348C23.2221 50.0928 24.5967 50.4562 26.1095 50.7041C27.6224 50.952 29.2438 51.0796 30.8813 51.0796C32.5187 51.0796 34.1402 50.952 35.653 50.7041C37.1658 50.4562 38.5404 50.0928 39.6983 49.6348C40.8562 49.1767 41.7746 48.6329 42.4013 48.0345C43.0279 47.436 43.3504 46.7945 43.3504 46.1467ZM42.4017 56.2561C43.0283 55.6576 43.3508 55.0161 43.3508 54.3683H18.4125C18.4125 55.0161 18.735 55.6576 19.3617 56.2561C19.9883 56.8545 20.9068 57.3983 22.0646 57.8564C23.2225 58.3145 24.5971 58.6778 26.1099 58.9257C27.6227 59.1736 29.2442 59.3012 30.8817 59.3012C32.5191 59.3012 34.1406 59.1736 35.6534 58.9257C37.1662 58.6778 38.5408 58.3145 39.6987 57.8564C40.8566 57.3983 41.775 56.8545 42.4017 56.2561Z" fill="#2B2B2B"/>
<path fill-rule="evenodd" clip-rule="evenodd" d="M43.3504 35.7334V43.9548H18.4121V35.7334C18.4121 36.3812 18.7346 37.0226 19.3613 37.6211C19.9879 38.2196 20.9064 38.7634 22.0642 39.2215C23.2221 39.6795 24.5967 40.0429 26.1095 40.2908C27.6224 40.5387 29.2438 40.6663 30.8813 40.6663C32.5187 40.6663 34.1402 40.5387 35.653 40.2908C37.1658 40.0429 38.5404 39.6795 39.6983 39.2215C40.8562 38.7634 41.7746 38.2196 42.4013 37.6211C43.0279 37.0226 43.3504 36.3812 43.3504 35.7334ZM42.4017 45.8426C43.0283 45.2441 43.3508 44.6027 43.3508 43.9549H18.4125C18.4125 44.6027 18.735 45.2441 19.3617 45.8426C19.9883 46.4411 20.9068 46.9849 22.0646 47.4429C23.2225 47.901 24.5971 48.2643 26.1099 48.5122C27.6227 48.7601 29.2442 48.8877 30.8817 48.8877C32.5191 48.8877 34.1406 48.7601 35.6534 48.5122C37.1662 48.2643 38.5408 47.901 39.6987 47.4429C40.8566 46.9849 41.775 46.4411 42.4017 45.8426Z" fill="#2B2B2B"/>
<path fill-rule="evenodd" clip-rule="evenodd" d="M43.3504 25.3193V33.5408L43.3508 33.5408C43.3508 34.1885 43.0283 34.83 42.4017 35.4285C41.775 36.027 40.8566 36.5708 39.6987 37.0288C38.5408 37.4869 37.1662 37.8502 35.6534 38.0981C34.1406 38.346 32.5191 38.4736 30.8817 38.4736C29.2442 38.4736 27.6227 38.346 26.1099 38.0981C24.5971 37.8502 23.2225 37.4869 22.0646 37.0288C20.9068 36.5708 19.9883 36.027 19.3617 35.4285C18.735 34.83 18.4125 34.1886 18.4125 33.5408H18.4121V25.3193C18.4121 25.9671 18.7346 26.6086 19.3613 27.2071C19.9879 27.8055 20.9064 28.3493 22.0642 28.8074C23.2221 29.2654 24.5967 29.6288 26.1095 29.8767C27.6224 30.1246 29.2438 30.2522 30.8813 30.2522C32.5187 30.2522 34.1402 30.1246 35.653 29.8767C37.1658 29.6288 38.5404 29.2655 39.6983 28.8074C40.8562 28.3493 41.7746 27.8055 42.4013 27.2071C43.0279 26.6086 43.3504 25.9671 43.3504 25.3193Z" fill="#2B2B2B"/>
<path d="M42.323 60.8765C50.2001 60.1206 49.8152 56.7361 50.6129 55.4641C52.14 55.7064 60.1308 56.6365 63.2488 59.6312C67.1463 63.3746 60.9406 67.5055 51.9832 67.7963C43.0257 68.087 32.4766 61.8215 42.323 60.8765Z" fill="#2B2B2B"/>
</svg>
