<svg width="86" height="86" viewBox="0 0 86 86" fill="none" xmlns="http://www.w3.org/2000/svg">
<rect x="1.6" y="1.6" width="82.8" height="82.8" rx="3.73333" fill="white"/>
<rect x="1.6" y="1.6" width="82.8" height="82.8" rx="3.73333" stroke="#2B2B2B" stroke-width="3.2"/>
<path d="M44.6533 63.9899C44.1445 62.4634 43.6356 60.6824 43.6356 58.9015C43.6356 55.0851 45.1622 51.5232 47.452 48.7246H43.6356V43.6361H48.7241V47.4524C50.2506 46.1803 52.0316 45.1626 53.8125 44.3994V18.1938H18.1934V63.9899H33.4587V55.0851H38.5472V63.9899H44.6533ZM43.6356 23.2823H48.7241V28.3708H43.6356V23.2823ZM43.6356 33.4592H48.7241V38.5477H43.6356V33.4592ZM28.3703 58.9015H23.2818V53.813H28.3703V58.9015ZM28.3703 48.7246H23.2818V43.6361H28.3703V48.7246ZM28.3703 38.5477H23.2818V33.4592H28.3703V38.5477ZM28.3703 28.3708H23.2818V23.2823H28.3703V28.3708ZM33.4587 23.2823H38.5472V28.3708H33.4587V23.2823ZM33.4587 33.4592H38.5472V38.5477H33.4587V33.4592ZM33.4587 48.7246V43.6361H38.5472V48.7246H33.4587ZM67.8058 53.5586L62.4629 58.9015L67.8058 64.2443L64.2439 67.8063L58.901 62.4634L53.5581 67.8063L49.9962 64.2443L55.3391 58.9015L49.9962 53.5586L53.5581 49.9967L58.901 55.3395L64.2439 49.9967L67.8058 53.5586Z" fill="#2B2B2B"/>
</svg>
