<svg width="86" height="86" viewBox="0 0 86 86" fill="none" xmlns="http://www.w3.org/2000/svg">
<rect x="1.6" y="1.6" width="82.8" height="82.8" rx="3.73333" fill="white"/>
<rect x="1.6" y="1.6" width="82.8" height="82.8" rx="3.73333" stroke="#2B2B2B" stroke-width="3.2"/>
<path fill-rule="evenodd" clip-rule="evenodd" d="M51.9454 33.549C52.2945 33.4588 52.665 33.5089 52.9775 33.6888C53.29 33.8686 53.5196 34.1637 53.617 34.5109C54.0747 36.1491 54.1471 37.8711 53.8285 39.5419C53.51 41.2128 52.8091 42.7873 51.7808 44.1423C50.7525 45.4972 49.4246 46.5959 47.9011 47.3522C46.3775 48.1086 44.6996 48.5022 42.9986 48.5022C41.2976 48.5022 39.6197 48.1086 38.0962 47.3522C36.5726 46.5959 35.2447 45.4972 34.2164 44.1423C33.1881 42.7873 32.4873 41.2128 32.1687 39.5419C31.8501 37.8711 31.9225 36.1491 32.3802 34.5109C32.4776 34.1637 32.7072 33.8686 33.0197 33.6888C33.3322 33.5089 33.7028 33.4588 34.0518 33.549C39.1812 34.872 46.816 34.872 51.9454 33.549ZM34.785 36.5422C34.6533 37.6995 34.7675 38.8716 35.1203 39.9817C35.473 41.0918 36.0564 42.1148 36.832 42.9838C37.6077 43.8527 38.5581 44.548 39.6212 45.0241C40.6843 45.5001 41.8359 45.7462 43.0007 45.7462C44.1655 45.7462 45.3171 45.5001 46.3802 45.0241C47.4432 44.548 48.3937 43.8527 49.1694 42.9838C49.945 42.1148 50.5283 41.0918 50.8811 39.9817C51.2338 38.8716 51.3481 37.6995 51.2164 36.5422C46.2317 37.5483 39.7683 37.5483 34.785 36.5422Z" fill="#2B2B2B"/>
<path fill-rule="evenodd" clip-rule="evenodd" d="M36.1089 49.1878C27.8581 50.628 18.1934 54.3048 18.1934 59.5375V67.8063H67.8058V59.5375C67.8058 54.3048 58.141 50.628 49.8902 49.1878V55.4032H36.1089V49.1878ZM27.8402 67.8063V55.4032H30.5965V67.8063H27.8402ZM56.7808 55.4032V67.8063H59.537V55.4032H56.7808ZM44.3777 18.2738V24.3678C44.3777 24.7333 44.2325 25.0839 43.974 25.3423C43.7156 25.6008 43.3651 25.746 42.9996 25.746C42.6341 25.746 42.2835 25.6008 42.0251 25.3423C41.7666 25.0839 41.6214 24.7333 41.6214 24.3678V18.1938C40.1987 18.269 38.7997 18.5908 37.4871 19.1448V27.1241C37.4871 27.4896 37.3419 27.8401 37.0834 28.0986C36.825 28.357 36.4745 28.5022 36.1089 28.5022C35.7434 28.5022 35.3929 28.357 35.1345 28.0986C34.876 27.8401 34.7308 27.4896 34.7308 27.1241V20.8605C32.8428 22.4839 31.7541 24.5897 31.4082 26.435C31.3963 26.4992 31.3853 26.5635 31.3751 26.628L31.3475 26.6555C31.2249 27.5224 31.2924 28.2362 31.4688 28.7268C31.5818 29.0682 31.5569 29.4402 31.3994 29.7635C31.2418 30.0868 30.9642 30.3357 30.6257 30.4571C30.2873 30.5785 29.9147 30.5627 29.5877 30.4133C29.2606 30.2638 29.0049 29.9924 28.8752 29.6571C28.8518 29.5932 28.8298 29.5289 28.809 29.4641C20.8063 39.9131 65.2369 39.9075 57.1763 29.4462C57.1555 29.5137 57.1334 29.5808 57.1102 29.6474C56.9831 29.984 56.7295 30.2576 56.4034 30.4096C56.0774 30.5617 55.7048 30.5803 55.3652 30.4613C55.0257 30.3424 54.7461 30.0954 54.5863 29.7731C54.4264 29.4508 54.3989 29.0788 54.5096 28.7365C54.7081 28.1659 54.766 27.4548 54.6585 26.6693C54.6503 26.6632 54.642 26.6573 54.6337 26.6514C54.336 24.7882 53.2032 22.7279 51.2683 21.1044V27.1241C51.2683 27.4896 51.1231 27.8401 50.8647 28.0986C50.6062 28.357 50.2557 28.5022 49.8902 28.5022C49.5247 28.5022 49.1741 28.357 48.9157 28.0986C48.6572 27.8401 48.5121 27.4896 48.5121 27.1241V19.3818C47.9739 19.1401 47.42 18.9352 46.8542 18.7685C46.0444 18.5325 45.2159 18.3679 44.3777 18.2738Z" fill="#2B2B2B"/>
</svg>
