<svg width="86" height="86" viewBox="0 0 86 86" fill="none" xmlns="http://www.w3.org/2000/svg">
<rect x="1.6" y="1.6" width="82.8" height="82.8" rx="3.73333" fill="white"/>
<rect x="1.6" y="1.6" width="82.8" height="82.8" rx="3.73333" stroke="#2B2B2B" stroke-width="3.2"/>
<path d="M58.5878 34.3843C57.8328 30.8086 55.8718 27.6011 53.0333 25.2994C50.1948 22.9976 46.6514 21.7415 42.9969 21.7415C39.3425 21.7415 35.7991 22.9976 32.9606 25.2994C30.1221 27.6011 28.1611 30.8086 27.4061 34.3843C24.8124 34.9248 22.4826 36.3389 20.8059 38.3903C19.1292 40.4417 18.207 43.0063 18.1934 45.6557V48.3132C18.1934 48.7831 18.38 49.2338 18.7123 49.566C19.0445 49.8983 19.4952 50.0849 19.965 50.0849H41.2253C41.6951 50.0849 42.1458 49.8983 42.478 49.566C42.8103 49.2338 42.9969 48.7831 42.9969 48.3132C42.9969 47.8434 42.8103 47.3927 42.478 47.0605C42.1458 46.7282 41.6951 46.5416 41.2253 46.5416H21.7367V45.661C21.7458 43.6591 22.5047 41.7332 23.8638 40.2633C25.2229 38.7933 27.0835 37.886 29.0786 37.7203L30.5243 37.607L30.6997 36.1683C31.0695 33.1671 32.524 30.4048 34.7892 28.4015C37.0544 26.3983 39.9739 25.2926 42.9978 25.2926C46.0217 25.2926 48.9413 26.3983 51.2065 28.4015C53.4717 30.4048 54.9262 33.1671 55.296 36.1683L55.4714 37.6087L56.9153 37.7203C58.9718 37.8769 60.8874 38.825 62.259 40.3652C63.6307 41.9054 64.3515 43.9176 64.2698 45.9784C64.1881 48.0392 63.3102 49.988 61.8209 51.4148C60.3316 52.8415 58.347 53.635 56.2846 53.6283H27.0518C26.5819 53.6283 26.1313 53.815 25.799 54.1472C25.4668 54.4795 25.2801 54.9301 25.2801 55.4C25.2801 55.8699 25.4668 56.3205 25.799 56.6528C26.1313 56.985 26.5819 57.1717 27.0518 57.1717H56.2846C59.1387 57.1747 61.8921 56.1172 64.0103 54.2043C66.1285 52.2915 67.4604 49.6598 67.7474 46.8202C68.0344 43.9805 67.2561 41.1356 65.5635 38.8375C63.8708 36.5395 61.3848 34.9524 58.5878 34.3843Z" fill="#2B2B2B"/>
<path d="M48.312 60.7151H19.965C18.9866 60.7151 18.1934 61.5083 18.1934 62.4868C18.1934 63.4653 18.9866 64.2585 19.965 64.2585H48.312C49.2905 64.2585 50.0837 63.4653 50.0837 62.4868C50.0837 61.5083 49.2905 60.7151 48.312 60.7151Z" fill="#2B2B2B"/>
</svg>
