<svg width="86" height="86" viewBox="0 0 86 86" fill="none" xmlns="http://www.w3.org/2000/svg">
<rect x="1.6" y="1.6" width="82.8" height="82.8" rx="3.73333" fill="white"/>
<rect x="1.6" y="1.6" width="82.8" height="82.8" rx="3.73333" stroke="#2B2B2B" stroke-width="3.2"/>
<path d="M59.7857 18.1938H23.2011C21.7768 18.1959 20.5861 18.6745 19.629 19.6295C18.6719 20.5845 18.1934 21.7752 18.1934 23.2016V59.7862L29.733 48.2466H27.1391V40.2559C27.137 38.9494 27.5846 37.8476 28.4817 36.9504C29.3789 36.0533 30.4817 35.6047 31.7903 35.6047H34.891C36.1975 35.6047 37.2993 36.0533 38.1965 36.9504C38.7083 37.4622 39.0741 38.0407 39.2939 38.6857L59.7857 18.1938ZM35.6755 31.7969C35.045 32.4274 34.2667 32.7427 33.3406 32.7427C32.4145 32.7427 31.6363 32.4285 31.0058 31.8C30.3753 31.1716 30.06 30.3933 30.06 29.4652C30.06 28.537 30.3753 27.7587 31.0058 27.1303C31.6363 26.5019 32.4145 26.1866 33.3406 26.1845C34.2667 26.1825 35.044 26.4977 35.6724 27.1303C36.3009 27.7628 36.6161 28.5411 36.6182 29.4652C36.6202 30.3892 36.306 31.1665 35.6755 31.7969ZM36.7493 48.2466H39.5422V45.4536L51.064 33.9319L48.3081 38.3489H58.2058L53.7648 31.2311L65.8344 19.1614C66.0205 19.3021 66.1991 19.4581 66.3701 19.6295C67.3251 20.5866 67.8037 21.7773 67.8058 23.2016V62.7985C67.8058 64.2249 67.3282 65.4156 66.3732 66.3706C65.4182 67.3256 64.2264 67.8042 62.798 67.8063H23.2011C21.7748 67.8063 20.5841 67.3287 19.629 66.3737C19.4573 66.202 19.301 66.0227 19.1602 65.8357L30.2399 54.756V60.0543H36.4414V48.5544L36.7493 48.2466ZM58.2058 47.6512L53.2569 55.583L48.3081 47.6512H58.2058Z" fill="#2B2B2B"/>
<path d="M59.7857 18.1938H23.2011C21.7768 18.1959 20.5861 18.6745 19.629 19.6295C18.6719 20.5845 18.1934 21.7752 18.1934 23.2016V59.7862L29.733 48.2466H27.1391V40.2559C27.137 38.9494 27.5846 37.8476 28.4817 36.9504C29.3789 36.0533 30.4817 35.6047 31.7903 35.6047H34.891C36.1975 35.6047 37.2993 36.0533 38.1965 36.9504C38.7083 37.4622 39.0741 38.0407 39.2939 38.6857L59.7857 18.1938ZM35.6755 31.7969C35.045 32.4274 34.2667 32.7427 33.3406 32.7427C32.4145 32.7427 31.6363 32.4285 31.0058 31.8C30.3753 31.1716 30.06 30.3933 30.06 29.4652C30.06 28.537 30.3753 27.7587 31.0058 27.1303C31.6363 26.5019 32.4145 26.1866 33.3406 26.1845C34.2667 26.1825 35.044 26.4977 35.6724 27.1303C36.3009 27.7628 36.6161 28.5411 36.6182 29.4652C36.6202 30.3892 36.306 31.1665 35.6755 31.7969ZM36.7493 48.2466H39.5422V45.4536L51.064 33.9319L48.3081 38.3489H58.2058L53.7648 31.2311L65.8344 19.1614C66.0205 19.3021 66.1991 19.4581 66.3701 19.6295C67.3251 20.5866 67.8037 21.7773 67.8058 23.2016V62.7985C67.8058 64.2249 67.3282 65.4156 66.3732 66.3706C65.4182 67.3256 64.2264 67.8042 62.798 67.8063H23.2011C21.7748 67.8063 20.5841 67.3287 19.629 66.3737C19.4573 66.202 19.301 66.0227 19.1602 65.8357L30.2399 54.756V60.0543H36.4414V48.5544L36.7493 48.2466ZM58.2058 47.6512L53.2569 55.583L48.3081 47.6512H58.2058Z" stroke="white"/>
</svg>
