<svg width="86" height="86" viewBox="0 0 86 86" fill="none" xmlns="http://www.w3.org/2000/svg">
<rect x="1.6" y="1.6" width="82.8" height="82.8" rx="3.73333" fill="white"/>
<rect x="1.6" y="1.6" width="82.8" height="82.8" rx="3.73333" stroke="#2B2B2B" stroke-width="3.2"/>
<path d="M42.9961 18.1938C50.6486 18.1938 58.3011 18.1938 65.9536 18.1938C67.1234 18.1938 67.7988 18.8763 67.8058 20.0463C67.8058 35.3534 67.8058 50.6606 67.8058 65.9677C67.8058 67.1168 67.1164 67.8063 65.9814 67.8063H20.0177C18.8757 67.8063 18.1934 67.1168 18.1934 65.9747C18.1934 50.6675 18.1934 35.3604 18.1934 20.0533C18.1934 18.8763 18.8688 18.1938 20.0386 18.1938C27.6911 18.1938 35.3436 18.1938 42.9961 18.1938ZM51.4842 65.4524C51.4862 65.453 51.4883 65.4535 51.4903 65.4541C51.6106 65.4881 51.645 65.5151 51.6861 65.5151C53.2806 65.5151 54.8682 65.522 56.4628 65.5151C56.6021 65.5151 56.7831 65.3897 56.8736 65.2713C57.5491 64.4426 58.1897 63.586 58.872 62.7573C59.1018 62.4787 59.1715 62.2001 59.1715 61.8519C59.1715 53.2721 59.1715 44.6923 59.1575 36.1125C59.1575 35.3952 59.2341 34.7406 59.6101 34.086C60.0836 33.2642 59.9374 32.4215 59.3943 31.6416C59.2759 31.4675 59.1784 31.2376 59.1784 31.0287C59.1645 27.6999 59.1715 24.371 59.1715 21.0491V20.5199H30.7688V21.2232C30.7688 32.0316 30.7688 42.8399 30.7688 53.6412C30.7688 53.9825 30.7409 54.2193 30.351 54.3655C29.2926 54.7625 28.6868 55.6887 28.6868 56.7681C28.6868 57.9033 29.3414 58.8574 30.4276 59.2682C30.6852 59.3657 30.7758 59.4981 30.7688 59.7697C30.7479 60.48 30.7479 61.1903 30.7688 61.8937C30.7758 62.1932 30.6644 62.3673 30.4276 62.5274C29.1185 63.398 27.8164 64.2894 26.5143 65.1738C26.3959 65.2574 26.2845 65.3549 26.1731 65.4384C26.187 65.4663 26.201 65.4942 26.2149 65.522H26.7302C33.4426 65.522 40.1551 65.522 46.8676 65.529C47.348 65.529 47.7101 65.3827 48.0792 65.0972C48.9287 64.4565 49.7921 63.8158 50.7043 63.2656C51.4354 62.8269 52.278 62.618 53.1553 62.7224C53.7124 62.7851 53.8795 63.1333 53.5592 63.593C53.4129 63.8019 53.218 63.9829 53.023 64.1571C52.5374 64.5803 52.038 64.9897 51.4903 65.4541C51.4883 65.4558 51.4862 65.4576 51.4842 65.4593" fill="#2B2B2B"/>
<path d="M51.4903 65.4541C51.6106 65.4881 51.645 65.5151 51.6861 65.5151C53.2806 65.5151 54.8682 65.522 56.4628 65.5151C56.6021 65.5151 56.7831 65.3897 56.8736 65.2713C57.5491 64.4426 58.1897 63.586 58.872 62.7573C59.1018 62.4787 59.1715 62.2001 59.1715 61.8519C59.1715 53.2721 59.1715 44.6923 59.1575 36.1125C59.1575 35.3952 59.2341 34.7406 59.6101 34.086C60.0836 33.2642 59.9374 32.4215 59.3943 31.6416C59.2759 31.4675 59.1784 31.2376 59.1784 31.0287C59.1645 27.6999 59.1715 24.371 59.1715 21.0491V20.5199H30.7688V21.2232V53.6412C30.7688 53.9825 30.7409 54.2193 30.351 54.3655C29.2926 54.7625 28.6868 55.6887 28.6868 56.7681C28.6868 57.9033 29.3414 58.8574 30.4276 59.2682C30.6852 59.3657 30.7758 59.4981 30.7688 59.7697C30.7479 60.48 30.7479 61.1903 30.7688 61.8937C30.7758 62.1932 30.6644 62.3673 30.4276 62.5274C29.1185 63.398 27.8164 64.2894 26.5143 65.1738C26.3959 65.2574 26.2845 65.3549 26.1731 65.4384L26.2149 65.522H26.7302C33.4426 65.522 40.1551 65.522 46.8676 65.529C47.348 65.529 47.7101 65.3827 48.0792 65.0972C48.9287 64.4565 49.7921 63.8158 50.7043 63.2656C51.4354 62.8269 52.278 62.618 53.1553 62.7224C53.7124 62.7851 53.8795 63.1333 53.5592 63.593C53.4129 63.8019 53.218 63.9829 53.023 64.1571C52.5374 64.5803 52.038 64.9897 51.4903 65.4541Z" fill="#2B2B2B"/>
<path d="M51.4895 65.4521C52.0397 64.9924 52.5411 64.5815 53.0286 64.1567C53.2236 63.9896 53.4186 63.8016 53.5648 63.5926C53.8852 63.14 53.718 62.7848 53.1609 62.7221C52.2834 62.6177 51.4408 62.8266 50.7026 63.2653C49.7903 63.8155 48.9337 64.4562 48.0771 65.0969C47.701 65.3755 47.3459 65.5287 46.8653 65.5287C40.1519 65.5147 33.4385 65.5147 26.7251 65.5147H26.2098C26.2098 65.5147 26.1819 65.459 26.168 65.4312C26.2794 65.3406 26.3908 65.2431 26.5092 65.1665C27.8115 64.2821 29.1138 63.3976 30.423 62.5202C30.6668 62.36 30.7713 62.1859 30.7643 61.8864C30.7434 61.1761 30.7434 60.4657 30.7643 59.7624C30.7713 59.4908 30.6807 59.3585 30.423 59.261C29.3366 58.857 28.682 57.896 28.682 56.7608C28.682 55.6814 29.2879 54.7552 30.3464 54.3582C30.7364 54.212 30.7643 53.9752 30.7643 53.6339C30.7643 42.8256 30.7643 32.0173 30.7643 21.209V20.5056H59.1709V21.0349C59.1709 24.3637 59.1709 27.6926 59.1779 31.0145C59.1779 31.2234 59.2684 31.4532 59.3938 31.6273C59.944 32.4073 60.0832 33.25 59.6097 34.0717C59.2336 34.7264 59.157 35.374 59.157 36.0983C59.1709 44.6781 59.157 53.2579 59.1709 61.8377C59.1709 62.1859 59.0943 62.4645 58.8715 62.743C58.189 63.5717 57.5483 64.4214 56.8728 65.2571C56.7753 65.3755 56.6012 65.5008 56.4619 65.5008C54.8671 65.5147 53.2793 65.5078 51.6845 65.5008C51.6427 65.5008 51.6079 65.4799 51.4826 65.4381M50.0967 38.6611C51.2388 39.2461 52.3113 39.7753 53.3698 40.3325C54.5886 40.9732 55.4591 40.7294 56.0928 39.4968C57.0678 37.5956 58.0219 35.6874 58.976 33.7723C59.3659 32.9853 59.0734 32.0661 58.3353 31.683C57.5622 31.2861 56.643 31.5995 56.2321 32.3934C55.8491 33.1385 55.473 33.8907 55.0969 34.6358C54.6791 35.4576 54.2543 36.2724 53.8225 37.122C53.6554 37.0454 53.5091 36.9827 53.3698 36.9131C51.6079 36.0147 49.839 35.1233 48.0841 34.2249C47.513 33.9324 46.9489 33.8628 46.3361 34.0648C44.0936 34.803 41.8442 35.5342 39.5948 36.2585C39.0655 36.4326 38.7173 36.7599 38.5014 37.2822C37.5056 39.6639 36.4818 42.0317 35.486 44.4204C35.3745 44.685 35.3258 45.0193 35.3676 45.2979C35.486 46.0082 36.0222 46.4818 36.6768 46.5445C37.3663 46.6071 37.9373 46.245 38.2298 45.5416C38.9611 43.8145 39.741 42.1014 40.3957 40.3464C40.7717 39.3436 41.2801 38.6541 42.3944 38.5148C42.6729 38.48 42.9445 38.3407 43.2161 38.2572C43.3206 38.2293 43.4251 38.2223 43.5852 38.2014C43.5226 38.3756 43.4947 38.5009 43.439 38.6193C41.503 43.2365 39.5739 47.8537 37.624 52.464C37.5404 52.652 37.3175 52.847 37.1156 52.9097C35.0194 53.6061 32.9232 54.2746 30.82 54.9502C30.2489 55.1312 29.8102 55.4794 29.6013 56.0366C29.3297 56.7608 29.3993 57.4642 29.9356 58.0631C30.4927 58.6829 31.203 58.857 31.99 58.6063C34.511 57.7915 37.025 56.9419 39.553 56.1341C40.4096 55.8555 40.9876 55.3262 41.3706 54.5253C41.9487 53.2997 42.5476 52.0809 43.1395 50.8553C43.439 50.2355 43.7454 49.6156 44.0449 49.0028C44.1354 49.0237 44.1772 49.0237 44.219 49.0376C46.0854 49.8106 47.9517 50.5767 49.8181 51.3636C49.9435 51.4124 50.0619 51.6074 50.0828 51.7397C50.2221 53.1186 50.3335 54.4975 50.4588 55.8764C50.5981 57.4155 50.7583 58.9545 50.8627 60.4936C50.9463 61.6357 51.8377 62.5132 52.9311 62.4366C54.0384 62.36 54.8323 61.385 54.7278 60.2429C54.6443 59.3236 54.5537 58.4044 54.4702 57.4851C54.2125 54.797 53.9618 52.1088 53.6902 49.4276C53.6205 48.7103 53.2305 48.195 52.555 47.9164C50.8836 47.2409 49.2123 46.5654 47.5409 45.8829C47.4155 45.8341 47.2902 45.7575 47.1439 45.6879C48.1467 43.341 49.1287 41.0358 50.1385 38.675M52.2625 30.7429C52.172 29.0576 51.009 27.7762 49.261 27.7762C47.3459 27.7762 46.2316 29.3222 46.2804 30.8264C46.3361 32.456 47.6244 33.8071 49.254 33.7583C51.0299 33.7096 52.1859 32.4282 52.2625 30.7429Z" fill="white"/>
</svg>
