<svg width="86" height="86" viewBox="0 0 86 86" fill="none" xmlns="http://www.w3.org/2000/svg">
<rect x="1.6" y="1.6" width="82.8" height="82.8" rx="3.73333" fill="white"/>
<rect x="1.6" y="1.6" width="82.8" height="82.8" rx="3.73333" stroke="#2B2B2B" stroke-width="3.2"/>
<path d="M31.8616 18.1941H35.0037L39.7169 20.5828L35.0037 22.9716V24.5601C37.3132 24.3093 39.9997 24.166 42.859 24.166C45.7184 24.166 48.4049 24.3093 50.7143 24.5601V18.1941H53.8564L58.5696 20.5828L53.8564 22.9716V25.014C56.7629 25.5634 58.5696 26.3158 58.5696 27.1519C58.5696 28.8001 51.4999 30.1378 42.859 30.1378C34.2182 30.1378 27.1484 28.8001 27.1484 27.1519C27.1484 26.3158 28.9552 25.5634 31.8616 25.014V18.1941ZM42.859 25.9575C37.6588 25.9575 35.0037 26.1606 35.0037 27.1519C35.0037 28.1432 37.6588 28.3463 42.859 28.3463C48.0592 28.3463 50.7143 28.1432 50.7143 27.1519C50.7143 26.1606 48.0592 25.9575 42.859 25.9575ZM42.859 32.228C48.8448 32.228 54.1707 31.4277 57.627 30.1975L55.4275 39.6928H47.5722V37.3041C47.5722 36.6705 47.2412 36.0629 46.6519 35.615C46.0626 35.167 45.2634 34.9153 44.4301 34.9153H41.288C40.4546 34.9153 39.6554 35.167 39.0662 35.615C38.4769 36.0629 38.1459 36.6705 38.1459 37.3041V39.6928H30.2906L28.0911 30.1975C31.5474 31.4277 36.8733 32.228 42.859 32.228Z" fill="#2B2B2B"/>
<path d="M41.487 55.4027L43.3475 49.8212H54.5105L56.371 55.4027M54.5105 61.6044C54.0171 61.6044 53.5439 61.4084 53.1949 61.0595C52.846 60.7106 52.65 60.2373 52.65 59.7439C52.65 59.2505 52.846 58.7772 53.1949 58.4283C53.5439 58.0794 54.0171 57.8834 54.5105 57.8834C55.004 57.8834 55.4772 58.0794 55.8261 58.4283C56.175 58.7772 56.371 59.2505 56.371 59.7439C56.371 60.2373 56.175 60.7106 55.8261 61.0595C55.4772 61.4084 55.004 61.6044 54.5105 61.6044ZM43.3475 61.6044C42.8541 61.6044 42.3809 61.4084 42.0319 61.0595C41.683 60.7106 41.487 60.2373 41.487 59.7439C41.487 59.2505 41.683 58.7772 42.0319 58.4283C42.3809 58.0794 42.8541 57.8834 43.3475 57.8834C43.841 57.8834 44.3142 58.0794 44.6631 58.4283C45.012 58.7772 45.208 59.2505 45.208 59.7439C45.208 60.2373 45.012 60.7106 44.6631 61.0595C44.3142 61.4084 43.841 61.6044 43.3475 61.6044ZM56.2718 49.2011C56.0113 48.4569 55.3043 47.9607 54.5105 47.9607H43.3475C42.5537 47.9607 41.8467 48.4569 41.5862 49.2011L39.0064 56.6431V66.5657C39.0064 66.8947 39.137 67.2102 39.3696 67.4428C39.6022 67.6754 39.9177 67.8061 40.2467 67.8061H41.487C41.816 67.8061 42.1315 67.6754 42.3641 67.4428C42.5967 67.2102 42.7274 66.8947 42.7274 66.5657V65.3254H55.1307V66.5657C55.1307 66.8947 55.2614 67.2102 55.494 67.4428C55.7266 67.6754 56.0421 67.8061 56.371 67.8061H57.6113C57.9403 67.8061 58.2558 67.6754 58.4884 67.4428C58.721 67.2102 58.8517 66.8947 58.8517 66.5657V56.6431L56.2718 49.2011ZM50.0701 45.4801C49.8097 44.7359 49.1027 44.2397 48.3088 44.2397H37.1459C36.352 44.2397 35.645 44.7359 35.3846 45.4801L32.8047 52.9221V62.8447C32.8047 63.1737 32.9354 63.4892 33.168 63.7218C33.4006 63.9544 33.7161 64.0851 34.045 64.0851H35.2854C35.6143 64.0851 35.9298 63.9544 36.1624 63.7218C36.395 63.4892 36.5257 63.1737 36.5257 62.8447V57.7718C36.2965 57.6899 36.0858 57.5637 35.9056 57.4002C35.7254 57.2367 35.5792 57.0392 35.4755 56.8191C35.3718 56.599 35.3125 56.3606 35.3012 56.1175C35.2899 55.8745 35.3266 55.6316 35.4094 55.4027C35.6823 54.6585 36.3644 54.1624 37.1459 54.1624H37.2327L38.1009 51.6817H35.2854L37.1459 46.1002H50.281L50.0701 45.4801Z" fill="#2B2B2B"/>
</svg>
