<svg width="86" height="86" viewBox="0 0 86 86" fill="none" xmlns="http://www.w3.org/2000/svg">
<rect x="1.6" y="1.6" width="82.8" height="82.8" rx="3.73333" fill="white"/>
<rect x="1.6" y="1.6" width="82.8" height="82.8" rx="3.73333" stroke="#2B2B2B" stroke-width="3.2"/>
<path d="M52.9021 32.9048C52.5994 32.5974 52.3555 32.2209 52.1952 31.7912C51.7754 32.3085 51.1954 32.6851 50.5164 32.8252C48.9069 33.1585 47.3484 32.0394 47.0355 30.3258C46.8499 29.311 47.1434 28.3153 47.7476 27.6029C46.1381 27.9357 44.5799 26.8165 44.2667 25.1035C44.091 24.1418 44.3453 23.1967 44.8867 22.4943C42.2727 20.8918 39.241 19.9751 36.008 19.9751C26.1694 19.9751 18.1934 28.4653 18.1934 38.9382C18.1934 47.8932 24.0252 55.3982 31.8664 57.3859C31.8434 57.3378 31.8214 57.289 31.8005 57.239C31.1336 55.6445 31.8072 53.7766 33.3051 53.0661C32.7113 52.9217 32.1644 52.584 31.7501 52.089C26.6255 50.2093 22.9439 45.0315 22.9439 38.9382C22.9439 31.2579 28.7929 25.0319 36.008 25.0319C43.2232 25.0319 49.0721 31.2579 49.0721 38.9382C49.0721 41.8957 48.2046 44.6377 46.7261 46.8914C47.9552 46.7747 49.1725 47.4877 49.7025 48.755C49.9921 49.4476 50.029 50.1914 49.8553 50.8698C52.3364 47.6111 53.8227 43.4593 53.8227 38.9382C53.8227 36.8289 53.4991 34.7999 52.9021 32.9048Z" fill="#2B2B2B"/>
<path d="M24.9034 38.9382C24.9034 43.5617 27.3973 47.5655 31.0313 49.5081C31.1795 48.4809 31.8005 47.5519 32.7591 47.0976C33.6464 46.6772 34.6238 46.7574 35.4119 47.2241C34.745 45.6296 35.4188 43.7617 36.9167 43.0518C38.2418 42.4234 39.7678 42.9123 40.5641 44.1364C40.8639 43.5321 41.3492 43.0265 41.9813 42.7271C43.4763 42.0185 45.2276 42.7321 45.8974 44.3204C46.6742 42.7062 47.1126 40.8765 47.1126 38.9382C47.1126 32.4098 42.1408 27.1178 36.008 27.1178C29.8753 27.1178 24.9034 32.4098 24.9034 38.9382Z" fill="#2B2B2B"/>
<path d="M62.9627 41.3919C63.1782 41.1764 63.3318 40.9166 63.3897 40.6697C63.4476 40.4228 63.4051 40.209 63.2715 40.0754C63.1378 39.9418 62.924 39.8992 62.6772 39.9571C62.4303 40.015 62.1705 40.1686 61.955 40.3841L58.4177 43.9214C57.4809 44.8579 56.7735 45.9664 56.4152 47.0593C56.0569 48.1522 56.0697 49.1623 56.4514 49.9187L44.181 62.1891C43.9655 62.4046 43.8119 62.6644 43.754 62.9113C43.6961 63.1582 43.7386 63.372 43.8723 63.5056C44.0059 63.6392 44.2197 63.6818 44.4666 63.6239C44.7135 63.566 44.9732 63.4124 45.1887 63.1969L57.4592 50.9264C58.2156 51.3082 59.2257 51.321 60.3185 50.9626C61.4114 50.6043 62.5199 49.8969 63.4565 48.9601L66.9937 45.4229C67.2092 45.2074 67.3628 44.9476 67.4207 44.7007C67.4786 44.4538 67.4361 44.24 67.3025 44.1064C67.1688 43.9728 66.955 43.9302 66.7082 43.9881C66.4613 44.046 66.2015 44.1996 65.986 44.4151L62.4487 47.9524C61.9445 48.4569 61.3557 48.8521 60.7633 49.0835C60.171 49.3149 59.6042 49.3711 59.1413 49.2443C58.6783 49.1176 58.2603 48.6995 58.1335 48.2366C58.0068 47.7736 58.063 47.2069 58.2944 46.6145C58.5258 46.0222 58.921 45.4333 59.4255 44.9291L62.9627 41.3919Z" fill="#2B2B2B"/>
</svg>
