<svg width="86" height="86" viewBox="0 0 86 86" fill="none" xmlns="http://www.w3.org/2000/svg">
<rect x="1.6" y="1.6" width="82.8" height="82.8" rx="3.73333" fill="white"/>
<rect x="1.6" y="1.6" width="82.8" height="82.8" rx="3.73333" stroke="#2B2B2B" stroke-width="3.2"/>
<path d="M65.325 42.5475L55.8685 43.4334L59.6421 34.8006L52.5147 41.0202L50.443 31.8373L48.3696 41.0194L41.2437 34.7981L45.0166 43.4335L35.5576 42.5446L43.733 47.3315L35.5591 52.1278L45.0157 51.2418L41.2443 59.8817L48.3717 53.6621L50.4434 62.845L52.5145 53.6559L59.6404 59.8771L55.8675 51.2417L65.3243 52.1236L57.1488 47.3367L65.325 42.5475Z" fill="#2B2B2B"/>
<path fill-rule="evenodd" clip-rule="evenodd" d="M20.6738 60.3644V33.0776C20.6738 31.3104 21.201 29.7751 22.2551 28.473C23.3095 27.1703 24.6428 26.3025 26.2552 25.8683V21.9148C26.2552 20.8913 26.6198 20.0162 27.3493 19.2876C28.0784 18.5596 28.9542 18.1951 29.9762 18.1938H41.1389C41.5402 18.1938 41.9187 18.2502 42.2748 18.3622C42.8268 18.536 43.3243 18.8443 43.7676 19.2876C44.4971 20.0174 44.8611 20.8925 44.8599 21.9148V25.8683C46.4723 26.3025 47.8056 27.1703 48.86 28.473C49.0235 28.675 49.1743 28.8826 49.3125 29.0958L47.3338 37.8585L36.6449 28.5266L42.3042 41.4797L28.1157 40.1463L37.2261 45.4807H24.3948C23.7098 45.4807 23.1544 46.036 23.1544 46.721C23.1544 47.406 23.7098 47.9613 24.3948 47.9613H39.2975L28.1181 54.5211L42.3029 53.1922L36.6459 66.152L47.3369 56.8226L49.0989 64.6328C48.8518 64.9756 48.5706 65.3047 48.2553 65.62C46.7979 67.0777 45.0458 67.8063 42.9994 67.8063H28.1157C26.0693 67.8063 24.3172 67.0777 22.8598 65.62C21.4024 64.1628 20.6738 62.4108 20.6738 60.3644ZM29.9762 25.6357H33.6971C33.6971 25.1088 33.8757 24.6673 34.2328 24.3112C34.5901 23.9551 35.0316 23.7765 35.5576 23.7752C36.0835 23.774 36.5256 23.9527 36.8842 24.3112C37.2424 24.6697 37.4204 25.1112 37.418 25.6357H41.1389V21.9148H29.9762V25.6357Z" fill="#2B2B2B"/>
</svg>
