<svg width="86" height="86" viewBox="0 0 86 86" fill="none" xmlns="http://www.w3.org/2000/svg">
<rect x="1.6" y="1.6" width="82.8" height="82.8" rx="3.73333" fill="white"/>
<rect x="1.6" y="1.6" width="82.8" height="82.8" rx="3.73333" stroke="#2B2B2B" stroke-width="3.2"/>
<path fill-rule="evenodd" clip-rule="evenodd" d="M63.7553 29.8252L63.7277 29.8528C64.968 31.0931 65.7398 32.8295 65.7398 34.7313V60.9156C65.7398 61.8205 65.5615 62.7166 65.2152 63.5526C64.8689 64.3886 64.3614 65.1482 63.7215 65.788C63.0817 66.4279 62.3221 66.9354 61.4861 67.2817C60.6501 67.628 59.754 67.8063 58.8491 67.8063C57.0216 67.8063 55.269 67.0803 53.9767 65.788C52.6845 64.4958 51.9585 62.7431 51.9585 60.9156V47.1344H47.8242V67.8063H20.2617V23.7063C20.2617 20.6469 22.7148 18.1938 25.7742 18.1938H42.3117C43.7737 18.1938 45.1758 18.7746 46.2096 19.8084C47.2434 20.8422 47.8242 22.2443 47.8242 23.7063V43H50.5804C52.0424 43 53.4445 43.5808 54.4783 44.6146C55.5121 45.6484 56.0929 47.0505 56.0929 48.5125V60.9156C56.0929 61.6466 56.3833 62.3477 56.9002 62.8646C57.4171 63.3815 58.1181 63.6719 58.8491 63.6719C59.5801 63.6719 60.2812 63.3815 60.7981 62.8646C61.315 62.3477 61.6054 61.6466 61.6054 60.9156V41.0431C60.751 41.4014 59.8414 41.6219 58.8491 41.6219C57.0216 41.6219 55.269 40.896 53.9767 39.6037C53.3369 38.9639 52.8293 38.2042 52.4831 37.3682C52.1368 36.5322 51.9585 35.6362 51.9585 34.7313C51.9585 31.7821 53.8052 29.2188 56.3961 28.3093L50.5804 22.4936L53.502 19.572L63.7553 29.8252ZM56.9002 36.6803C57.4171 37.1972 58.1181 37.4876 58.8491 37.4876C59.5801 37.4876 60.2812 37.1972 60.7981 36.6803C61.315 36.1634 61.6054 35.4623 61.6054 34.7313C61.6054 34.0003 61.315 33.2993 60.7981 32.7824C60.2812 32.2655 59.5801 31.9751 58.8491 31.9751C58.1181 31.9751 57.4171 32.2655 56.9002 32.7824C56.3833 33.2993 56.0929 34.0003 56.0929 34.7313C56.0929 35.4623 56.3833 36.1634 56.9002 36.6803ZM25.7742 37.4876H42.3117V23.7063H25.7742V37.4876ZM41.0369 63.1042L45.0679 59.0732L38.3496 52.3549L45.0679 45.6365L41.0369 41.6055L34.3186 48.3239L27.6002 41.6055L23.5692 45.6365L30.2876 52.3549L23.5692 59.0732L27.6002 63.1042L34.3186 56.3859L41.0369 63.1042Z" fill="#2B2B2B"/>
</svg>
