<svg width="86" height="86" viewBox="0 0 86 86" fill="none" xmlns="http://www.w3.org/2000/svg">
<rect x="1.6" y="1.6" width="82.8" height="82.8" rx="3.73333" fill="white"/>
<rect x="1.6" y="1.6" width="82.8" height="82.8" rx="3.73333" stroke="#2B2B2B" stroke-width="3.2"/>
<path d="M62.3236 51.459C64.6802 46.076 64.6802 39.8993 62.3236 34.5411L55.5267 37.6171C57.0151 41.0404 57.0151 44.9349 55.5515 48.383L62.3236 51.459ZM51.4833 23.676C48.8112 22.5102 45.9273 21.9085 43.012 21.9085C40.0967 21.9085 37.2127 22.5102 34.5406 23.676L37.6166 30.4481C41.0647 28.9845 44.9593 28.9845 48.4073 30.4729L51.4833 23.676ZM23.6755 34.5163C22.5091 37.1926 21.9071 40.0806 21.9071 43C21.9071 45.9195 22.5091 48.8075 23.6755 51.4838L30.4724 48.383C28.9841 44.9597 28.9841 41.0404 30.4724 37.5923L23.6755 34.5163ZM34.5406 62.3241C37.2129 63.4918 40.0983 64.0925 43.0146 64.0883C45.9308 64.084 48.8145 63.4748 51.4833 62.2993L48.4073 55.5272C46.7083 56.2613 44.8777 56.6421 43.0269 56.6464C41.1761 56.6507 39.3438 56.2783 37.6414 55.552L34.5406 62.3241ZM42.9996 18.1938C46.2572 18.1938 49.4829 18.8355 52.4925 20.0821C55.5021 21.3287 58.2367 23.1559 60.5402 25.4594C62.8437 27.7629 64.6709 30.4975 65.9175 33.5071C67.1641 36.5168 67.8058 39.7425 67.8058 43C67.8058 49.5791 65.1923 55.8886 60.5402 60.5407C55.8881 65.1927 49.5786 67.8063 42.9996 67.8063C39.742 67.8063 36.5163 67.1646 33.5066 65.918C30.497 64.6714 27.7624 62.8442 25.4589 60.5407C20.8069 55.8886 18.1934 49.5791 18.1934 43C18.1934 36.421 20.8069 30.1115 25.4589 25.4594C30.111 20.8074 36.4205 18.1938 42.9996 18.1938ZM42.9996 33.0776C40.368 33.0776 37.8441 34.123 35.9833 35.9838C34.1225 37.8446 33.0771 40.3684 33.0771 43C33.0771 45.6317 34.1225 48.1555 35.9833 50.0163C37.8441 51.8771 40.368 52.9225 42.9996 52.9225C45.6312 52.9225 48.155 51.8771 50.0158 50.0163C51.8766 48.1555 52.922 45.6317 52.922 43C52.922 40.3684 51.8766 37.8446 50.0158 35.9838C48.155 34.123 45.6312 33.0776 42.9996 33.0776Z" fill="#2B2B2B"/>
</svg>
