<svg width="86" height="86" viewBox="0 0 86 86" fill="none" xmlns="http://www.w3.org/2000/svg">
<rect x="1.6" y="1.6" width="82.8" height="82.8" rx="3.73333" fill="white"/>
<rect x="1.6" y="1.6" width="82.8" height="82.8" rx="3.73333" stroke="#2B2B2B" stroke-width="3.2"/>
<path d="M21.3686 18.1938L18.1934 21.3442L25.0647 28.2156L27.2228 31.5644L23.7003 37.0466L27.9918 39.2791L31.167 34.3179L39.8492 43H23.1546C21.8388 43 20.5769 43.5228 19.6465 44.4532C18.7161 45.3836 18.1934 46.6455 18.1934 47.9613V67.8063H23.1546V62.845H59.6941L62.8445 65.9954V67.8063H67.8058V64.6311L21.3686 18.1938ZM30.5965 55.4031C30.5965 56.0611 30.3351 56.692 29.8699 57.1572C29.4047 57.6224 28.7737 57.8838 28.1158 57.8838C27.4579 57.8838 26.827 57.6224 26.3618 57.1572C25.8966 56.692 25.6352 56.0611 25.6352 55.4031V50.4419C25.6352 49.784 25.8966 49.1531 26.3618 48.6878C26.827 48.2226 27.4579 47.9613 28.1158 47.9613C28.7737 47.9613 29.4047 48.2226 29.8699 48.6878C30.3351 49.1531 30.5965 49.784 30.5965 50.4419V55.4031ZM40.5189 55.4031C40.5189 56.0611 40.2576 56.692 39.7924 57.1572C39.3272 57.6224 38.6962 57.8838 38.0383 57.8838C37.3804 57.8838 36.7495 57.6224 36.2843 57.1572C35.8191 56.692 35.5577 56.0611 35.5577 55.4031V50.4419C35.5577 49.784 35.8191 49.1531 36.2843 48.6878C36.7495 48.2226 37.3804 47.9613 38.0383 47.9613C38.6962 47.9613 39.3272 48.2226 39.7924 48.6878C40.2576 49.1531 40.5189 49.784 40.5189 50.4419V55.4031ZM50.4414 55.4031C50.4414 56.0611 50.1801 56.692 49.7149 57.1572C49.2497 57.6224 48.6187 57.8838 47.9608 57.8838C47.3029 57.8838 46.6719 57.6224 46.2067 57.1572C45.7415 56.692 45.4802 56.0611 45.4802 55.4031V50.4419C45.4802 49.921 45.6786 49.4745 45.9267 49.0776L50.4414 53.5923V55.4031ZM53.5422 36.7985L57.0647 31.3411L53.5422 25.8838L58.5034 18.1938L62.8445 20.4016L59.2724 25.8838L62.8445 31.3411V31.3659L57.8833 39.0311L53.5422 36.7985ZM67.8058 47.9613V58.3303L60.3639 50.8884V50.4419C60.3639 49.784 60.1026 49.1531 59.6373 48.6878C59.1721 48.2226 58.5412 47.9613 57.8833 47.9613C57.7593 47.9613 57.6352 47.9613 57.5112 48.0357L52.4755 43H62.8445C64.1603 43 65.4222 43.5228 66.3526 44.4532C67.2831 45.3836 67.8058 46.6455 67.8058 47.9613ZM42.1065 31.3411L38.5841 25.8838L43.5453 18.1938L47.8368 20.4016L44.3143 25.8838L47.8368 31.3411L47.812 31.3659L45.0833 35.5582L41.6104 32.1349L42.1065 31.3411ZM31.8368 22.3861L28.3639 18.8884L28.6616 18.4171L32.953 20.6745L31.8368 22.3861Z" fill="#2B2B2B"/>
</svg>
