<svg width="86" height="86" viewBox="0 0 86 86" fill="none" xmlns="http://www.w3.org/2000/svg">
<rect x="1.6" y="1.6" width="82.8" height="82.8" rx="3.73333" fill="white"/>
<rect x="1.6" y="1.6" width="82.8" height="82.8" rx="3.73333" stroke="#2B2B2B" stroke-width="3.2"/>
<path d="M53.2167 42.3479C53.2167 40.7054 53.0718 39.1112 52.8786 37.5171H61.0426C61.4291 39.0629 61.6706 40.6813 61.6706 42.3479C61.6706 43.2416 61.5982 44.1111 61.4774 44.9565C63.144 45.1981 64.6899 45.7295 66.115 46.5024C66.3565 45.1498 66.5014 43.773 66.5014 42.3479C66.5014 29.0632 55.6321 18.1938 42.3474 18.1938C28.9902 18.1938 18.1934 29.0632 18.1934 42.3479C18.1934 55.6326 29.0627 66.5019 42.3474 66.5019C43.7725 66.5019 45.1493 66.357 46.5019 66.1155C45.3546 64.0115 44.7565 61.6522 44.7628 59.2557C44.7628 58.5552 44.8353 57.8789 44.9319 57.2026C44.159 58.7243 43.3136 60.1977 42.3474 61.5745C40.3426 58.676 38.7243 55.4635 37.734 52.0095H46.7193C48.17 49.4887 50.3513 47.4673 52.9752 46.2125C53.1201 44.9324 53.2167 43.6522 53.2167 42.3479ZM42.3474 23.0971C44.3522 25.9956 45.9705 29.2322 46.9608 32.6863H37.734C38.7243 29.2322 40.3426 25.9956 42.3474 23.0971ZM23.6522 47.1787C23.2657 45.6328 23.0242 44.0145 23.0242 42.3479C23.0242 40.6813 23.2657 39.0629 23.6522 37.5171H31.8162C31.623 39.1112 31.4781 40.7054 31.4781 42.3479C31.4781 43.9904 31.623 45.5845 31.8162 47.1787H23.6522ZM25.6328 52.0095H32.6858C33.5312 55.0288 34.6181 57.9272 36.0673 60.6083C31.6671 59.0922 27.962 56.0389 25.6328 52.0095ZM32.6858 32.6863H25.6328C27.9483 28.6454 31.6584 25.588 36.0673 24.0874C34.6181 26.7685 33.5312 29.667 32.6858 32.6863ZM47.9994 47.1787H36.6954C36.4538 45.5845 36.3089 43.9904 36.3089 42.3479C36.3089 40.7054 36.4538 39.0871 36.6954 37.5171H47.9994C48.2168 39.0871 48.3859 40.7054 48.3859 42.3479C48.3859 43.9904 48.2168 45.5845 47.9994 47.1787ZM48.6033 24.0874C53.0476 25.6091 56.7432 28.6767 59.062 32.6863H51.9366C51.1794 29.6951 50.0601 26.8074 48.6033 24.0874ZM62.6609 59.2557L67.8058 64.3764L64.3759 67.8063L59.2552 62.6614L54.1346 67.8063L50.7289 64.3764L55.8495 59.2557L50.7289 54.1351L54.1346 50.7293L59.2552 55.85L64.3759 50.7293L67.8058 54.1351L62.6609 59.2557Z" fill="#2B2B2B"/>
</svg>
