<svg width="86" height="86" viewBox="0 0 86 86" fill="none" xmlns="http://www.w3.org/2000/svg">
<rect x="1.6" y="1.6" width="82.8" height="82.8" rx="3.73333" fill="white"/>
<rect x="1.6" y="1.6" width="82.8" height="82.8" rx="3.73333" stroke="#2B2B2B" stroke-width="3.2"/>
<path d="M67.8058 64.8059L21.2174 18.1938L18.1934 21.1942L33.6441 36.6449C31.4942 40.1651 29.746 43.9923 29.746 47.725C29.746 55.5449 36.1011 61.9 43.9209 61.9C45.8783 61.9088 47.8155 61.5051 49.6065 60.7155C51.3976 59.9258 53.0022 58.7678 54.3159 57.3168L64.8054 67.8063L67.8058 64.8059ZM43.9209 57.175C38.6762 57.175 34.471 52.9698 34.471 47.725C34.471 46.0004 35.6522 43.0945 37.1642 40.1651L51.0084 53.9857C49.2602 55.9465 46.7559 57.175 43.9209 57.175ZM41.8892 32.8649L38.5108 29.463C40.5426 26.817 42.1491 24.9978 42.1491 24.9978L43.9209 23.0133L45.6928 24.9978C45.6928 24.9978 48.7168 28.4235 51.7644 32.8649C54.812 37.3064 58.0959 42.622 58.0959 47.725C58.0959 48.1503 58.0959 48.5755 58.025 49.0008L52.0952 43.0709C51.0084 40.6376 49.5201 37.8971 47.8899 35.5346C45.9054 32.6523 44.9604 31.6364 43.9209 30.4079C43.2831 31.1403 42.7397 31.8254 41.8892 32.8649Z" fill="#2B2B2B"/>
</svg>
