<svg width="86" height="86" viewBox="0 0 86 86" fill="none" xmlns="http://www.w3.org/2000/svg">
<rect x="1.6" y="1.6" width="82.8" height="82.8" rx="3.73333" fill="white"/>
<rect x="1.6" y="1.6" width="82.8" height="82.8" rx="3.73333" stroke="#2B2B2B" stroke-width="3.2"/>
<path d="M46.2281 52.5691H38.5693C38.5893 50.5686 38.7295 48.846 38.9898 47.4012C39.2701 45.9341 39.7406 44.6116 40.4014 43.4335C41.0822 42.2554 41.9832 41.0885 43.1045 39.9326C44.0456 38.9991 44.8666 38.1099 45.5674 37.2653C46.2682 36.4206 46.8188 35.5537 47.2193 34.6646C47.6198 33.7533 47.82 32.7419 47.82 31.6305C47.82 30.3413 47.6398 29.2744 47.2794 28.4297C46.939 27.5629 46.4184 26.9071 45.7176 26.4626C45.0368 26.018 44.1758 25.7957 43.1346 25.7957C42.2736 25.7957 41.4726 26.0069 40.7318 26.4292C39.9909 26.8293 39.3802 27.4517 38.8997 28.2964C38.4391 29.141 38.1989 30.2524 38.1788 31.6305H29.4688C29.5288 28.5853 30.1595 26.0736 31.3609 24.0953C32.5824 22.0948 34.2142 20.6167 36.2566 19.6609C38.299 18.6829 40.5916 18.1938 43.1346 18.1938C45.9378 18.1938 48.3406 18.7051 50.3429 19.7276C52.3452 20.7278 53.877 22.206 54.9382 24.162C55.9994 26.0958 56.5301 28.452 56.5301 31.2304C56.5301 33.1643 56.1897 34.8869 55.5089 36.3984C54.8281 37.8877 53.9371 39.2769 52.8358 40.5661C51.7345 41.8553 50.5231 43.189 49.2016 44.5671C48.0603 45.7007 47.2794 46.8899 46.8589 48.1347C46.4584 49.3794 46.2482 50.8576 46.2281 52.5691ZM37.6682 62.8717C37.6682 61.4491 38.1087 60.271 38.9898 59.3375C39.8708 58.3817 41.0522 57.9038 42.5339 57.9038C43.9956 57.9038 45.1669 58.3817 46.0479 59.3375C46.949 60.271 47.3995 61.4491 47.3995 62.8717C47.3995 64.2498 46.949 65.4168 46.0479 66.3726C45.1669 67.3284 43.9956 67.8063 42.5339 67.8063C41.0522 67.8063 39.8708 67.3284 38.9898 66.3726C38.1087 65.4168 37.6682 64.2498 37.6682 62.8717Z" fill="#2B2B2B"/>
</svg>
