<svg width="86" height="86" viewBox="0 0 86 86" fill="none" xmlns="http://www.w3.org/2000/svg">
<rect x="1.6" y="1.6" width="82.8" height="82.8" rx="3.73333" fill="white"/>
<rect x="1.6" y="1.6" width="82.8" height="82.8" rx="3.73333" stroke="#2B2B2B" stroke-width="3.2"/>
<rect x="18.8269" y="18.8269" width="48.3463" height="48.3463" stroke="black" stroke-width="1.65375"/>
<path d="M45.6093 57.3562L42.9748 55.7651L40.3488 57.3562L41.0502 54.3623L38.7235 52.3609L41.7858 52.0958L42.9748 49.2729L44.1723 52.0871L47.2346 52.3522L44.9079 54.354L45.6093 57.3562Z" fill="#2B2B2B"/>
<path d="M43.6637 29.599H47.949L42.2464 35.3016H37.9611L43.6637 29.599Z" fill="#2B2B2B"/>
<path d="M50.984 31.4028L47.0852 35.3016H50.984V31.4028Z" fill="#2B2B2B"/>
<path d="M38.8248 29.599H35.0168V33.407L38.8248 29.599Z" fill="#2B2B2B"/>
<path fill-rule="evenodd" clip-rule="evenodd" d="M27.0332 19.9046C27.0332 18.9599 27.7992 18.1938 28.744 18.1938H57.2569C58.2016 18.1938 58.9676 18.9599 58.9676 19.9046V66.0955C58.9676 67.0402 58.2016 67.8063 57.2569 67.8063H28.744C27.7992 67.8063 27.0332 67.0402 27.0332 66.0955V19.9046ZM51.5543 46.7067L49.8435 44.996C48.8598 45.5434 47.6196 45.8513 46.422 45.8513C45.2244 45.8513 43.9755 45.5347 43.0004 44.996C42.0253 45.5347 40.7765 45.8513 39.5789 45.8513C38.3813 45.8513 37.1411 45.5434 36.1573 44.996L34.4466 46.7067C34.4466 46.7067 36.1573 48.4175 36.1573 50.1283C36.1573 50.9837 35.7296 52.2667 35.3019 53.5498C34.8742 54.8329 34.4466 56.116 34.4466 56.9714C34.4466 60.3929 43.0004 62.1037 43.0004 62.1037C43.0004 62.1037 51.5543 60.3929 51.5543 56.9714C51.5543 56.116 51.1266 54.8329 50.6989 53.5498C50.2712 52.2667 49.8435 50.9837 49.8435 50.1283C49.8435 48.4175 51.5543 46.7067 51.5543 46.7067ZM31.025 38.7231V26.1775H54.9758V38.7231H31.025Z" fill="#2B2B2B"/>
</svg>
