<svg width="86" height="86" viewBox="0 0 86 86" fill="none" xmlns="http://www.w3.org/2000/svg">
<rect x="1.6" y="1.6" width="82.8" height="82.8" rx="3.73333" fill="white"/>
<rect x="1.6" y="1.6" width="82.8" height="82.8" rx="3.73333" stroke="#2B2B2B" stroke-width="3.2"/>
<rect x="24.5957" y="58.604" width="8.002" height="4.001" rx="2.0005" fill="#2B2B2B"/>
<rect x="59.8047" y="58.604" width="8.002" height="4.001" rx="2.0005" fill="#2B2B2B"/>
<path d="M37.3982 31.3972H34.1974L36.598 36.1984H39.7988L37.3982 31.3972Z" fill="#2B2B2B"/>
<path d="M42.9996 36.1984H46.2004L43.7998 31.3972H40.599L42.9996 36.1984Z" fill="#2B2B2B"/>
<path d="M52.602 36.1984H49.4012L47.0006 31.3972H50.2014L52.602 36.1984Z" fill="#2B2B2B"/>
<path d="M55.8028 36.1984H59.0036L56.603 31.3972H53.4022L55.8028 36.1984Z" fill="#2B2B2B"/>
<path d="M65.4052 36.1984H62.2044L59.8038 31.3972H63.0046L65.4052 36.1984Z" fill="#2B2B2B"/>
<path d="M27.7958 31.3972H30.9966L33.3972 36.1984H30.1964L27.7958 31.3972Z" fill="#2B2B2B"/>
<path d="M18.1934 31.3972L21.3942 33.7978L18.1934 36.1984H26.9956L24.595 31.3972H18.1934Z" fill="#2B2B2B"/>
<path d="M63.8049 23.395C62.4792 23.395 61.4043 24.4699 61.4043 25.7956V31.397H66.2055V25.7956C66.2055 24.4699 65.1306 23.395 63.8049 23.395Z" fill="#2B2B2B"/>
<path d="M66.2055 36.1982H61.4043V57.0034H66.2055V36.1982Z" fill="#2B2B2B"/>
<path d="M28.594 23.395C27.2682 23.395 26.1934 24.4699 26.1934 25.7956V31.397H30.9946V25.7956C30.9946 24.4699 29.9197 23.395 28.594 23.395Z" fill="#2B2B2B"/>
<path d="M30.9946 36.1982H26.1934V57.0034H30.9946V36.1982Z" fill="#2B2B2B"/>
<path d="M56.2297 42.504L54.2452 40.5195C53.1041 41.1546 51.6654 41.5118 50.2762 41.5118C48.8871 41.5118 47.4384 41.1446 46.3072 40.5195C45.1761 41.1446 43.7274 41.5118 42.3383 41.5118C40.9491 41.5118 39.5103 41.1546 38.3693 40.5195L36.3848 42.504C36.3848 42.504 38.3693 44.4885 38.3693 46.473C38.3693 48.4575 36.3848 52.4265 36.3848 54.411C36.3848 58.38 46.3072 60.3645 46.3072 60.3645C46.3072 60.3645 56.2297 58.38 56.2297 54.411C56.2297 52.4265 54.2452 48.4575 54.2452 46.473C54.2452 44.4885 56.2297 42.504 56.2297 42.504ZM49.3336 54.8575L46.2775 53.0119L43.2313 54.8575L44.0449 51.3846L41.346 49.0628L44.8983 48.7552L46.2775 45.4808L47.6666 48.7453L51.2189 49.0529L48.52 51.3747L49.3336 54.8575Z" fill="#2B2B2B"/>
</svg>
