<svg width="86" height="86" viewBox="0 0 86 86" fill="none" xmlns="http://www.w3.org/2000/svg">
<rect x="1.6" y="1.6" width="82.8" height="82.8" rx="3.73333" fill="white"/>
<rect x="1.6" y="1.6" width="82.8" height="82.8" rx="3.73333" stroke="#2B2B2B" stroke-width="3.2"/>
<path d="M64.262 45.4807H21.7371C20.7972 45.4807 19.8959 45.6632 19.2313 45.9881C18.5667 46.3131 18.1934 46.7537 18.1934 47.2132V53.5919C18.1934 54.0514 18.5667 54.4921 19.2313 54.817C19.8959 55.1419 20.7972 55.3244 21.7371 55.3244H24.2177V65.8769C24.2177 66.1067 24.4044 66.327 24.7367 66.4895C25.069 66.6519 25.5197 66.7432 25.9896 66.7432C26.4595 66.7432 26.9102 66.6519 27.2425 66.4895C27.5748 66.327 27.7615 66.1067 27.7615 65.8769V55.3244H58.2377V65.8769C58.2377 66.1067 58.4243 66.327 58.7566 66.4895C59.0889 66.6519 59.5396 66.7432 60.0095 66.7432C60.4795 66.7432 60.9301 66.6519 61.2624 66.4895C61.5947 66.327 61.7814 66.1067 61.7814 65.8769V55.3244H64.262C65.2019 55.3244 66.1032 55.1419 66.7678 54.817C67.4324 54.4921 67.8058 54.0514 67.8058 53.5919V47.2132C67.8058 46.7537 67.4324 46.3131 66.7678 45.9881C66.1032 45.6632 65.2019 45.4807 64.262 45.4807ZM21.7371 53.5919V48.5126L35.0261 53.5919H21.7371ZM64.262 53.5919H51.7061L35.7593 47.2132H50.973L64.262 52.2926V53.5919Z" fill="#2B2B2B"/>
<path d="M53.6301 21.2413L51.6456 19.2568C50.5045 19.8919 49.0658 20.2491 47.6766 20.2491C46.2875 20.2491 44.8388 19.882 43.7076 19.2568C42.5765 19.882 41.1278 20.2491 39.7386 20.2491C38.3495 20.2491 36.9107 19.8919 35.7697 19.2568L33.7852 21.2413C33.7852 21.2413 35.7697 23.2258 35.7697 25.2103C35.7697 27.1948 33.7852 31.1638 33.7852 33.1483C33.7852 37.1173 43.7076 39.1018 43.7076 39.1018C43.7076 39.1018 53.6301 37.1173 53.6301 33.1483C53.6301 31.1638 51.6456 27.1948 51.6456 25.2103C51.6456 23.2258 53.6301 21.2413 53.6301 21.2413ZM46.734 33.5948L43.6779 31.7492L40.6317 33.5948L41.4453 30.122L38.7464 27.8001L42.2986 27.4925L43.6779 24.2181L45.067 27.4826L48.6193 27.7902L45.9204 30.112L46.734 33.5948Z" fill="#2B2B2B"/>
</svg>
