<svg width="87" height="86" viewBox="0 0 87 86" fill="none" xmlns="http://www.w3.org/2000/svg">
<rect x="1.89688" y="1.6" width="82.8" height="82.8" rx="3.73333" fill="white"/>
<rect x="1.89688" y="1.6" width="82.8" height="82.8" rx="3.73333" stroke="#2B2B2B" stroke-width="3.2"/>
<g clip-path="url(#clip0_1_5150)">
<path d="M43.2968 67.8062C43.0402 67.8062 42.7713 67.7828 42.4903 67.7359C42.2093 67.6891 41.947 67.6188 41.7034 67.5252C36.171 65.4175 31.7748 61.8428 28.5149 56.8012C25.255 51.7596 23.625 46.3021 23.625 40.4286V28.3922C23.625 27.4367 23.9013 26.5721 24.454 25.7984C25.0067 25.0246 25.714 24.4626 26.5758 24.1122L41.709 18.4917C42.2561 18.2931 42.7854 18.1938 43.2968 18.1938C43.8083 18.1938 44.3376 18.2931 44.8846 18.4917L60.0179 24.1122C60.8797 24.4626 61.587 25.0246 62.1397 25.7984C62.6924 26.574 62.9687 27.4386 62.9687 28.3922V40.4286C62.9687 46.3021 61.3387 51.7596 58.0788 56.8012C54.8189 61.8428 50.4227 65.4175 44.8903 67.5252C44.6467 67.6188 44.3844 67.6891 44.1034 67.7359C43.8224 67.7828 43.5535 67.8062 43.2968 67.8062Z" fill="#2B2B2B"/>
<path d="M43.0448 64.4107C42.8266 64.4107 42.5981 64.3908 42.3592 64.3509C42.1204 64.3111 41.8974 64.2514 41.6904 64.1718C36.9878 62.3802 33.251 59.3418 30.4801 55.0564C27.7092 50.771 26.3237 46.1321 26.3237 41.1397V30.9088C26.3237 30.0966 26.5586 29.3617 27.0284 28.704C27.4982 28.0463 28.0993 27.5686 28.8319 27.2708L41.6952 22.4933C42.1602 22.3245 42.6101 22.2401 43.0448 22.2401C43.4795 22.2401 43.9294 22.3245 44.3944 22.4933L57.2577 27.2708C57.9903 27.5686 58.5914 28.0463 59.0612 28.704C59.531 29.3633 59.7659 30.0982 59.7659 30.9088V41.1397C59.7659 46.1321 58.3804 50.771 55.6095 55.0564C52.8386 59.3418 49.1018 62.3802 44.3992 64.1718C44.1922 64.2514 43.9692 64.3111 43.7304 64.3509C43.4915 64.3908 43.263 64.4107 43.0448 64.4107Z" fill="white"/>
<path d="M43.0445 61.248C42.859 61.248 42.6648 61.2311 42.4617 61.1973C42.2587 61.1634 42.0692 61.1127 41.8932 61.045C37.896 59.5222 34.7197 56.9395 32.3645 53.2969C30.0092 49.6544 28.8315 45.7113 28.8315 41.4677V32.7715C28.8315 32.0811 29.0312 31.4564 29.4305 30.8974C29.8298 30.3383 30.3408 29.9323 30.9635 29.6791L41.8973 25.6183C42.2925 25.4748 42.6749 25.4031 43.0445 25.4031C43.414 25.4031 43.7964 25.4748 44.1916 25.6183L55.1254 29.6791C55.7481 29.9323 56.2591 30.3383 56.6584 30.8974C57.0577 31.4578 57.2574 32.0825 57.2574 32.7715V41.4677C57.2574 45.7113 56.0797 49.6544 53.7244 53.2969C51.3692 56.9395 48.1929 59.5222 44.1957 61.045C44.0197 61.1127 43.8302 61.1634 43.6272 61.1973C43.4241 61.2311 43.2299 61.248 43.0445 61.248Z" fill="#2B2B2B"/>
<path d="M40.9584 40.5261C41.4872 39.8861 42.2877 39.477 43.1837 39.477C44.0797 39.477 44.8802 39.8861 45.409 40.5261C45.7571 40.9482 45.9781 41.4606 46.046 42.0035C46.114 42.5464 46.0262 43.0974 45.7929 43.5923C45.5595 44.0872 45.1903 44.5056 44.7282 44.7986C44.2662 45.0916 43.7303 45.2471 43.1832 45.2471C42.636 45.2471 42.1002 45.0916 41.6381 44.7986C41.176 44.5056 40.8068 44.0872 40.5735 43.5923C40.3401 43.0974 40.2523 42.5464 40.3203 42.0035C40.3883 41.4606 40.6092 40.9482 40.9574 40.5261M47.117 42.3622C47.117 41.6991 46.9533 41.0738 46.6638 40.5261H51.0524C51.4698 40.5261 51.8701 40.6919 52.1652 40.9871C52.4604 41.2822 52.6262 41.6825 52.6262 42.0999V42.6244C52.6262 44.2895 51.3609 45.9944 49.1482 46.5945C48.9208 46.186 48.5884 45.8458 48.1853 45.6089C47.7823 45.3721 47.3233 45.2472 46.8558 45.2474H45.8591C46.2567 44.8794 46.5739 44.4331 46.7906 43.9365C47.0073 43.44 47.1188 42.9039 47.1181 42.3622M46.8558 46.2965C47.0626 46.296 47.2675 46.3363 47.4587 46.4152C47.6499 46.4941 47.8236 46.61 47.9698 46.7562C48.1161 46.9025 48.232 47.0762 48.3109 47.2674C48.3897 47.4586 48.4301 47.6635 48.4295 47.8703V48.3949C48.4295 50.4628 46.4781 52.5915 43.1837 52.5915C39.8893 52.5915 37.9379 50.4628 37.9379 48.3949V47.8703C37.9373 47.6635 37.9776 47.4586 38.0565 47.2674C38.1354 47.0762 38.2513 46.9025 38.3976 46.7562C38.5438 46.61 38.7175 46.4941 38.9087 46.4152C39.0999 46.3363 39.3048 46.296 39.5116 46.2965H46.8558ZM33.7412 42.6244C33.7412 44.2895 35.0065 45.9944 37.2192 46.5945C37.4466 46.186 37.779 45.8458 38.1821 45.6089C38.5851 45.3721 39.0441 45.2472 39.5116 45.2474H40.5083C40.1107 44.8794 39.7935 44.4331 39.5768 43.9365C39.3601 43.44 39.2486 42.9039 39.2493 42.3622C39.2493 41.6991 39.413 41.0738 39.7036 40.5261H35.315C34.8976 40.5261 34.4973 40.6919 34.2022 40.9871C33.907 41.2822 33.7412 41.6825 33.7412 42.0999V42.6244ZM41.8722 36.5917C41.8722 35.8265 41.5683 35.0927 41.0272 34.5516C40.4861 34.0105 39.7522 33.7065 38.987 33.7065C38.2218 33.7065 37.488 34.0105 36.9469 34.5516C36.4058 35.0927 36.1018 35.8265 36.1018 36.5917C36.1018 37.357 36.4058 38.0908 36.9469 38.6319C37.488 39.173 38.2218 39.477 38.987 39.477C39.7522 39.477 40.4861 39.173 41.0272 38.6319C41.5683 38.0908 41.8722 37.357 41.8722 36.5917ZM50.2656 36.5917C50.2656 35.8265 49.9616 35.0927 49.4205 34.5516C48.8794 34.0105 48.1456 33.7065 47.3804 33.7065C46.6152 33.7065 45.8813 34.0105 45.3402 34.5516C44.7991 35.0927 44.4952 35.8265 44.4952 36.5917C44.4952 37.357 44.7991 38.0908 45.3402 38.6319C45.8813 39.173 46.6152 39.477 47.3804 39.477C48.1456 39.477 48.8794 39.173 49.4205 38.6319C49.9616 38.0908 50.2656 37.357 50.2656 36.5917Z" fill="white"/>
</g>
<defs>
<clipPath id="clip0_1_5150">
<rect width="49.6124" height="49.6124" fill="white" transform="translate(18.4907 18.1938)"/>
</clipPath>
</defs>
</svg>
