<svg width="86" height="86" viewBox="0 0 86 86" fill="none" xmlns="http://www.w3.org/2000/svg">
<rect x="1.6" y="1.6" width="82.8" height="82.8" rx="3.73333" fill="white"/>
<rect x="1.6" y="1.6" width="82.8" height="82.8" rx="3.73333" stroke="#2B2B2B" stroke-width="3.2"/>
<path d="M47.9608 41.5116C47.9608 44.2403 45.7282 46.4728 42.9996 46.4728C40.2709 46.4728 38.0383 44.2403 38.0383 41.5116C38.0383 38.7829 40.2709 36.5503 42.9996 36.5503C45.7282 36.5503 47.9608 38.7829 47.9608 41.5116ZM52.922 41.5116H67.8058C67.8058 32.3333 62.8445 24.3953 55.4027 19.9302L47.9608 32.8294C50.9375 34.5658 52.922 37.7906 52.922 41.5116ZM42.9996 51.4341C41.2631 51.4341 39.5267 50.9379 38.0383 49.9457C35.0616 55.155 31.5887 60.8604 30.5965 62.8449C34.3174 65.0775 38.5344 66.0697 42.9996 66.0697C47.4647 66.0697 51.6817 64.8294 55.4027 62.8449L47.9608 49.9457C46.4724 50.9379 44.736 51.4341 42.9996 51.4341ZM38.0383 33.0775C35.0616 27.8682 31.5887 21.9147 30.5965 19.9302C23.1546 24.1472 18.1934 32.3333 18.1934 41.5116H33.0771C33.0771 37.7906 35.0616 34.5658 38.0383 33.0775Z" fill="#2B2B2B"/>
</svg>
