<svg width="86" height="86" viewBox="0 0 86 86" fill="none" xmlns="http://www.w3.org/2000/svg">
<rect x="1.6" y="1.6" width="82.8" height="82.8" rx="3.73333" fill="white"/>
<rect x="1.6" y="1.6" width="82.8" height="82.8" rx="3.73333" stroke="#2B2B2B" stroke-width="3.2"/>
<path fill-rule="evenodd" clip-rule="evenodd" d="M53.2072 24.927C54.2824 24.927 55.1425 25.2371 55.3575 25.7539L60.9974 39.8107H64.262C65.2019 39.8107 66.1032 39.9933 66.7678 40.3182C67.4324 40.6431 67.8058 41.0837 67.8058 41.5432V47.922C67.8058 48.3814 67.4324 48.8221 66.7678 49.147C66.1032 49.4719 65.2019 49.6545 64.262 49.6545H61.7814V60.2069C61.7814 60.4367 61.5947 60.657 61.2624 60.8195C60.9301 60.9819 60.4795 61.0732 60.0095 61.0732C59.5396 61.0732 59.0889 60.9819 58.7566 60.8195C58.4243 60.657 58.2377 60.4367 58.2377 60.2069V49.6545H27.7615V60.2069C27.7615 60.4367 27.5748 60.657 27.2425 60.8195C26.9102 60.9819 26.4595 61.0732 25.9896 61.0732C25.5197 61.0732 25.069 60.9819 24.7367 60.8195C24.4044 60.657 24.2177 60.4367 24.2177 60.2069V49.6545H21.7371C20.7972 49.6545 19.8959 49.4719 19.2313 49.147C18.5667 48.8221 18.1934 48.3814 18.1934 47.922V41.5432C18.1934 41.0837 18.5667 40.6431 19.2313 40.3182C19.8959 39.9933 20.7972 39.8107 21.7371 39.8107H25.0018L30.6416 25.7539C30.8567 25.3404 31.7168 24.927 32.7919 24.927H41.8231L41.393 28.0278H44.8212L44.3911 24.927H53.2072ZM39.8792 39.8107H46.335L45.8963 36.2965H40.3179L39.8792 39.8107ZM40.9629 30.095L40.5329 34.2293H45.2512L44.8212 30.095H40.9629ZM21.7371 42.8426V47.922H35.0261L21.7371 42.8426ZM51.7061 47.922H64.262V46.6226L50.973 41.5432H35.7593L51.7061 47.922Z" fill="#2B2B2B"/>
</svg>
