<svg width="86" height="86" viewBox="0 0 86 86" fill="none" xmlns="http://www.w3.org/2000/svg">
<rect x="1.6" y="1.6" width="82.8" height="82.8" rx="3.73333" fill="white"/>
<rect x="1.6" y="1.6" width="82.8" height="82.8" rx="3.73333" stroke="#2B2B2B" stroke-width="3.2"/>
<path d="M29.9535 28.2657C26.3259 31.8933 23.4667 35.1531 23.2764 35.8756C22.7512 36.9449 23.962 39.3557 26.1087 41.5063L27.176 42.5737L26.9588 42.7909C26.8875 42.7641 26.8126 42.7483 26.7365 42.7441C26.7223 42.5416 26.6352 42.3511 26.4914 42.2079L25.9492 41.6658C25.8351 41.5263 25.6709 41.4369 25.4918 41.4168C25.3126 41.3967 25.1328 41.4474 24.9905 41.5581L24.1354 42.4132C24.0242 42.5564 23.9735 42.7375 23.9942 42.9176C24.0149 43.0978 24.1053 43.2626 24.2461 43.3769L24.2441 43.3749L24.7862 43.9171C24.9357 44.0665 25.128 44.1493 25.3234 44.1632H25.3214C25.3356 44.3657 25.4227 44.5561 25.5665 44.6994L28.2434 47.3762C28.2563 47.3931 28.2723 47.4091 28.2892 47.426C28.5384 47.6752 28.931 47.6951 29.2021 47.4838L30.0582 46.6278C30.1342 46.5435 30.1844 46.4391 30.2028 46.3271C30.2212 46.2151 30.2069 46.1001 30.1618 45.9959L30.1598 45.9919L30.3771 45.7747L35.1826 50.5802C35.3729 50.7706 35.7536 50.7427 36.1782 50.5075L36.802 51.1313C36.3915 51.6635 36.2778 52.2017 36.521 52.4448L41.8627 57.7865C42.4912 58.482 43.3354 58.9457 44.2595 59.103L44.2445 59.1L45.1624 60.0179C45.4046 60.2601 45.7972 60.2601 46.0394 60.0179L47.8313 58.226C47.9476 58.1097 48.0129 57.952 48.0129 57.7875C48.0129 57.6231 47.9476 57.4653 47.8313 57.349L47.2024 56.7202L58.411 45.5116L59.0399 46.1404C59.282 46.3826 59.6747 46.3826 59.9169 46.1404L61.7087 44.3486C61.7663 44.291 61.812 44.2226 61.8431 44.1474C61.8743 44.0722 61.8903 43.9915 61.8903 43.9101C61.8903 43.8286 61.8743 43.748 61.8431 43.6728C61.812 43.5975 61.7663 43.5292 61.7087 43.4716L60.7919 42.5547C60.6326 41.6332 60.1678 40.7921 59.4724 40.1669L59.4794 40.1739L54.1377 34.8322C53.8945 34.589 53.3523 34.7066 52.8242 35.1132L52.2003 34.4894C52.4355 34.0648 52.4624 33.6851 52.273 33.4938L47.4695 28.6902L47.6868 28.473C47.898 28.5647 48.1462 28.5298 48.3216 28.3723L49.1737 27.5202C49.2849 27.377 49.3356 27.196 49.3149 27.0158C49.2942 26.8357 49.2038 26.6708 49.063 26.5565L49.065 26.5585L46.3882 23.8817C46.2446 23.7376 46.0539 23.6502 45.851 23.6355L45.853 23.6355C45.8388 23.4331 45.7517 23.2426 45.6079 23.0994L45.0677 22.5592C44.9536 22.4197 44.7894 22.3304 44.6103 22.3103C44.4311 22.2901 44.2513 22.3409 44.109 22.4516L43.2529 23.3077C43.1417 23.4509 43.091 23.6319 43.1117 23.8121C43.1324 23.9922 43.2228 24.1571 43.3636 24.2714L43.3616 24.2694L43.9037 24.8115C44.0532 24.961 44.2455 25.0437 44.4409 25.0577L44.4389 25.0577C44.4431 25.1318 44.4578 25.205 44.4827 25.2749L44.4847 25.2789L44.2675 25.4962L43.1951 24.4238C41.0355 22.2642 38.6108 21.0514 37.5495 21.5965C36.7961 21.8198 33.5552 24.668 29.9555 28.2677L29.9535 28.2657ZM40.3718 24.0402C40.6299 23.782 41.0286 23.7502 41.3226 23.9445L41.3265 23.9465C41.9365 24.3531 42.5793 24.8803 43.1782 25.4792L43.2161 25.5171L43.2141 25.5151L46.9284 29.2294C47.2233 29.5244 47.2233 30.0027 46.9284 30.2977L31.9826 45.2435C31.8409 45.3852 31.6487 45.4648 31.4484 45.4648C31.248 45.4648 31.0559 45.3852 30.9142 45.2435L27.1651 41.4944C26.5661 40.8954 26.0389 40.2526 25.5835 39.5759L25.6313 39.6417C25.534 39.4963 25.4901 39.3217 25.5072 39.1476C25.5242 38.9734 25.6012 38.8106 25.725 38.687L40.3718 24.0402ZM38.1215 49.782L39.2656 48.6379C39.4081 48.4954 39.6353 48.4914 39.7838 48.6239L43.4453 51.9047L43.4592 51.9186C43.6067 52.0661 43.6067 52.3053 43.4592 52.4528L42.1258 53.7862C42.055 53.8571 41.9589 53.8969 41.8587 53.8969C41.7585 53.8969 41.6625 53.8571 41.5916 53.7862L38.1215 50.3161C37.974 50.1686 37.974 49.9295 38.1215 49.782ZM50.3247 37.5788L51.4688 36.4347C51.6163 36.2872 51.8555 36.2872 52.003 36.4347L55.4701 39.9018C55.6176 40.0493 55.6176 40.2885 55.4701 40.436L54.1357 41.7704C54.0648 41.8413 53.9687 41.881 53.8686 41.881C53.7684 41.881 53.6723 41.8412 53.6015 41.7704L53.5865 41.7555L50.3078 38.096C50.1782 37.9465 50.1842 37.7213 50.3247 37.5808V37.5788ZM41.0286 48.1506L49.8384 39.3407C49.9121 39.267 50.0317 39.267 50.1055 39.3407L50.2649 39.5002C50.3387 39.5739 50.3387 39.6935 50.2649 39.7673L41.4551 48.5771C41.4197 48.6125 41.3716 48.6324 41.3216 48.6324C41.2715 48.6324 41.2234 48.6125 41.188 48.5771L41.0286 48.4176C40.9548 48.3439 40.9548 48.2243 41.0286 48.1506ZM42.0421 49.0584L50.7453 40.3553C50.819 40.2815 50.9386 40.2815 51.0124 40.3553L51.1718 40.5147C51.2456 40.5885 51.2456 40.7081 51.1718 40.7818L42.4686 49.485C42.4332 49.5204 42.3852 49.5403 42.3351 49.5403C42.285 49.5403 42.237 49.5204 42.2015 49.485L42.0421 49.3255C41.9683 49.2518 41.9683 49.1322 42.0421 49.0584ZM43.0566 49.9653L51.6532 41.3688C51.7269 41.295 51.8465 41.295 51.9202 41.3688L52.0797 41.5282C52.1534 41.602 52.1535 41.7216 52.0797 41.7953L43.4832 50.3919C43.4489 50.4262 43.4026 50.4459 43.3541 50.4468C43.3056 50.4478 43.2586 50.4298 43.223 50.3969L43.0636 50.2374C42.9898 50.1637 42.9898 50.0441 43.0636 49.9703L43.0566 49.9653ZM44.0711 50.8722L52.5601 42.3833C52.6338 42.3096 52.7534 42.3096 52.8271 42.3833L52.9866 42.5428C53.0603 42.6165 53.0603 42.7361 52.9866 42.8099L44.4977 51.2988C44.4623 51.3342 44.4142 51.3541 44.3641 51.3541C44.314 51.3541 44.266 51.3342 44.2306 51.2988L44.0711 51.1393C43.9974 51.0656 43.9974 50.946 44.0711 50.8722Z" fill="#2B2B2B"/>
<path d="M18.1934 61.1509H67.8058V64.5335H18.1934V61.1509Z" fill="#2B2B2B"/>
</svg>
