<svg width="86" height="86" viewBox="0 0 86 86" fill="none" xmlns="http://www.w3.org/2000/svg">
<rect x="1.6" y="1.6" width="82.8" height="82.8" rx="3.73333" fill="white"/>
<rect x="1.6" y="1.6" width="82.8" height="82.8" rx="3.73333" stroke="#2B2B2B" stroke-width="3.2"/>
<path fill-rule="evenodd" clip-rule="evenodd" d="M53.2072 19.8477C54.2824 19.8477 55.1425 20.1577 55.3575 20.6745L60.9974 34.7314H64.262C65.2019 34.7314 66.1032 34.9139 66.7678 35.2388C67.4324 35.5637 67.8058 36.0044 67.8058 36.4639V42.8426C67.8058 43.3021 67.4324 43.7428 66.7678 44.0677C66.1032 44.3926 65.2019 44.5751 64.262 44.5751H61.7814V55.1276C61.7814 55.3573 61.5947 55.5777 61.2624 55.7401C60.9301 55.9026 60.4795 55.9938 60.0095 55.9938C59.5396 55.9938 59.0889 55.9026 58.7566 55.7401C58.4243 55.5777 58.2377 55.3573 58.2377 55.1276V44.5751H27.7615V55.1276C27.7615 55.3573 27.5748 55.5777 27.2425 55.7401C26.9102 55.9026 26.4595 55.9938 25.9896 55.9938C25.5197 55.9938 25.069 55.9026 24.7367 55.7401C24.4044 55.5777 24.2177 55.3573 24.2177 55.1276V44.5751H21.7371C20.7972 44.5751 19.8959 44.3926 19.2313 44.0677C18.5667 43.7428 18.1934 43.3021 18.1934 42.8426V36.4639C18.1934 36.0044 18.5667 35.5637 19.2313 35.2388C19.8959 34.9139 20.7972 34.7314 21.7371 34.7314H25.0018L30.6416 20.6745C30.8567 20.2611 31.7168 19.8477 32.7919 19.8477H41.8231L41.393 22.9484H44.8212L44.3911 19.8477H53.2072ZM39.8792 34.7314H46.335L45.8963 31.2172H40.3179L39.8792 34.7314ZM40.9629 25.0156L40.5329 29.15H45.2512L44.8212 25.0156H40.9629ZM21.7371 37.7632V42.8426H35.0261L21.7371 37.7632ZM51.7061 42.8426H64.262V41.5432L50.973 36.4639H35.7593L51.7061 42.8426Z" fill="#2B2B2B"/>
<path d="M52.5013 57.7968L46.4538 60.9302L47.4982 63.0192L43.3204 62.2358V66.1526H41.2314V62.2358L37.0535 63.0192L38.098 60.9302L32.0505 57.7968L33.095 55.9899L31.4238 52.5744L35.1839 52.3342L36.2284 50.4855L39.8005 54.5589L38.098 49.441H40.1869L42.2759 46.3076L44.3648 49.441H46.4538L44.7513 54.5589L48.3234 50.4855L49.3679 52.2924L53.1279 52.5327L51.4568 55.9063L52.5013 57.7968Z" fill="#2B2B2B"/>
</svg>
