<svg width="86" height="86" viewBox="0 0 86 86" fill="none" xmlns="http://www.w3.org/2000/svg">
<rect x="1.6" y="1.6" width="82.8" height="82.8" rx="3.73333" fill="white"/>
<rect x="1.6" y="1.6" width="82.8" height="82.8" rx="3.73333" stroke="#2B2B2B" stroke-width="3.2"/>
<path d="M18.1934 19.2419V21.3382H65.7095V64.6618H18.1934V66.7581H67.8058V19.2419H18.1934Z" fill="#2B2B2B"/>
<path d="M57.3243 38.1086C57.3243 40.0381 55.7601 41.6025 53.8304 41.6025C51.9008 41.6025 50.3366 40.0381 50.3366 38.1086C50.3366 36.1792 51.9008 34.6148 53.8304 34.6148C55.7601 34.6148 57.3243 36.1792 57.3243 38.1086Z" fill="#2B2B2B"/>
<path fill-rule="evenodd" clip-rule="evenodd" d="M57.4346 61.1945L50.9119 52.5384L46.0857 62.0103C45.7136 62.7408 44.8669 63.2492 44.0475 63.2495H41.2526C40.095 63.2495 39.1563 62.3109 39.1563 61.1532C39.1563 59.9956 40.095 59.0569 41.2526 59.0569H42.8849L47.4242 50.1484L45.7946 50.6864C45.064 51.0587 44.1699 50.7683 43.7976 50.0375C43.4252 49.3066 43.7157 48.4127 44.4466 48.0405L55.5774 42.3012C55.9742 42.1027 56.2759 41.9604 56.5844 41.8529C56.8191 41.7714 57.0578 41.7096 57.3453 41.6591C57.3833 41.6523 57.4213 41.6465 57.4594 41.6414C57.4858 41.6376 57.5121 41.6345 57.5384 41.6318L57.5945 41.6263C57.6665 41.6202 57.7381 41.6168 57.8093 41.6165C58.0795 41.5789 58.3525 41.6178 58.5981 41.7232C59.5937 42.0081 60.3913 42.8379 60.5832 43.9263L63.374 59.7537C63.642 61.2737 62.6271 62.7234 61.1068 62.9916C59.802 63.2216 58.2117 62.2263 57.4346 61.1945ZM55.2967 46.1373L52.4361 47.5945L56.5061 52.9956L55.2967 46.1373Z" fill="#2B2B2B"/>
</svg>
