<svg width="86" height="86" viewBox="0 0 86 86" fill="none" xmlns="http://www.w3.org/2000/svg">
<rect x="1.6" y="1.6" width="82.8" height="82.8" rx="3.73333" fill="white"/>
<rect x="1.6" y="1.6" width="82.8" height="82.8" rx="3.73333" stroke="#2B2B2B" stroke-width="3.2"/>
<path d="M53.2299 60.6137C53.2299 63.5929 50.8148 66.008 47.8356 66.008C44.8565 66.008 42.4414 63.5929 42.4414 60.6137C42.4414 57.6346 44.8565 55.2195 47.8356 55.2195C50.8148 55.2195 53.2299 57.6346 53.2299 60.6137ZM45.1385 60.6137C45.1385 62.1033 46.3461 63.3108 47.8356 63.3108C49.3252 63.3108 50.5328 62.1033 50.5328 60.6137C50.5328 59.1241 49.3252 57.9166 47.8356 57.9166C46.3461 57.9166 45.1385 59.1241 45.1385 60.6137Z" fill="#2B2B2B"/>
<path fill-rule="evenodd" clip-rule="evenodd" d="M67.8053 32.5214H59.6816C58.9791 32.5214 58.3137 32.8369 57.8691 33.3809L50.0835 42.9054L42.9405 31.0175C42.4411 30.1863 41.3624 29.9174 40.5313 30.4168C39.7001 30.9162 39.4311 31.9949 39.9306 32.8261L46.7806 44.2265H33.7088C31.7549 44.2265 30.1768 45.8214 30.1975 47.7751L30.2963 57.1392C30.3167 59.064 31.8828 60.6137 33.8077 60.6137H39.6432C39.6436 56.0889 43.3119 52.4209 47.8368 52.4209C52.3617 52.4209 56.0299 56.0889 56.0303 60.6137H67.8053V32.5214Z" fill="#2B2B2B"/>
<path d="M29.6372 40.2264C29.5325 40.3613 29.4158 40.482 29.2874 40.5885C29.159 40.6949 29.0032 40.7837 28.8202 40.8549C28.6372 40.926 28.4438 40.968 28.2402 40.9808C28.0366 40.9936 27.8471 40.9779 27.6717 40.9338C26.4583 40.5762 25.4831 40.1072 24.746 39.5268C24.0089 38.9464 23.479 38.2384 23.1564 37.4027C22.9209 36.797 22.798 36.1098 22.7875 35.3413C22.7771 34.5727 22.8724 33.5369 23.0735 32.2338C23.2345 31.0971 23.3204 30.2395 23.3314 29.6608C23.3423 29.0822 23.2649 28.5797 23.0993 28.1534C22.8829 27.5968 22.5102 27.1435 21.9812 26.7936C21.4521 26.4436 20.7277 26.1643 19.8081 25.9557C19.6333 25.9105 19.4809 25.8379 19.3507 25.7377C19.2206 25.6375 19.1296 25.5221 19.0778 25.3915C19.026 25.2609 19.0141 25.1291 19.0421 24.9961C19.0701 24.8631 19.1213 24.7252 19.1958 24.5824C19.2942 24.4311 19.419 24.2978 19.5702 24.1825C19.7214 24.0672 19.8881 23.9742 20.0702 23.9034C20.2523 23.8326 20.4326 23.7908 20.6111 23.778C20.7895 23.7652 20.9629 23.7731 21.1313 23.8019C22.3939 24.0838 23.4129 24.4981 24.1882 25.0448C24.9636 25.5915 25.5107 26.2739 25.8298 27.0922C26.0525 27.6652 26.1666 28.3135 26.1722 29.0373C26.1778 29.761 26.0823 30.7449 25.8855 31.989C25.6981 33.1925 25.6038 34.096 25.6025 34.6995C25.6012 35.303 25.6928 35.8422 25.8774 36.317C26.1001 36.89 26.4801 37.3784 27.0176 37.7824C27.5551 38.1863 28.2697 38.5255 29.1615 38.8001C29.3135 38.8541 29.4459 38.9251 29.5588 39.0131C29.6716 39.1012 29.7535 39.2107 29.8044 39.3417C29.8553 39.4727 29.8705 39.613 29.8501 39.7626C29.8296 39.9123 29.7587 40.0669 29.6372 40.2264Z" fill="#2B2B2B"/>
<path d="M35.9546 36.9969C35.8982 37.0973 35.8331 37.1854 35.7595 37.2611C35.6859 37.3369 35.5935 37.3963 35.4824 37.4395C35.3713 37.4827 35.2514 37.5016 35.1227 37.4964C34.9941 37.4911 34.8722 37.464 34.7571 37.4151C33.9573 37.035 33.3005 36.5836 32.7868 36.0609C32.2732 35.5381 31.8817 34.9286 31.6124 34.2324C31.4162 33.7276 31.2854 33.166 31.22 32.5476C31.1546 31.9291 31.1362 31.104 31.1646 30.0722C31.1802 29.171 31.1694 28.4883 31.1322 28.0241C31.0949 27.56 31.0073 27.1502 30.8692 26.795C30.6889 26.3311 30.417 25.9384 30.0534 25.6167C29.6898 25.2951 29.2072 25.0153 28.6058 24.7773C28.491 24.7277 28.3884 24.6576 28.2979 24.5672C28.2074 24.4767 28.1407 24.377 28.0977 24.2681C28.0547 24.1592 28.037 24.0523 28.0447 23.9476C28.0524 23.8429 28.0744 23.736 28.1109 23.6269C28.162 23.5129 28.2313 23.4153 28.3188 23.3342C28.4062 23.2531 28.5052 23.191 28.6158 23.1481C28.7264 23.1051 28.8379 23.0853 28.9506 23.0886C29.0632 23.0919 29.1743 23.1116 29.2837 23.1476C30.1091 23.4707 30.7895 23.8815 31.325 24.38C31.8604 24.8786 32.261 25.4689 32.5266 26.1508C32.7122 26.6283 32.8344 27.1581 32.8933 27.7401C32.9522 28.3222 32.9665 29.1055 32.9363 30.0903C32.909 31.0431 32.918 31.762 32.9633 32.2469C33.0086 32.7319 33.1081 33.1721 33.2619 33.5678C33.4475 34.0453 33.7268 34.4669 34.0999 34.8326C34.473 35.1983 34.9539 35.5255 35.5427 35.8143C35.6436 35.8693 35.7333 35.9365 35.8119 36.0159C35.8905 36.0953 35.951 36.1895 35.9934 36.2987C36.0358 36.4078 36.0562 36.5217 36.0546 36.6404C36.053 36.7592 36.0197 36.878 35.9546 36.9969Z" fill="#2B2B2B"/>
</svg>
