<svg width="87" height="86" viewBox="0 0 87 86" fill="none" xmlns="http://www.w3.org/2000/svg">
<rect x="1.89688" y="1.6" width="82.8" height="82.8" rx="3.73333" fill="white"/>
<rect x="1.89688" y="1.6" width="82.8" height="82.8" rx="3.73333" stroke="#2B2B2B" stroke-width="3.2"/>
<g clip-path="url(#clip0_1_1049)">
<path d="M43.297 34.7313C41.835 34.7313 40.4329 34.1505 39.3991 33.1167C38.3653 32.0829 37.7845 30.6808 37.7845 29.2188C37.7845 27.7568 38.3653 26.3547 39.3991 25.3209C40.4329 24.2871 41.835 23.7063 43.297 23.7063C46.3565 23.7063 48.8095 26.1593 48.8095 29.2188C48.8095 30.6808 48.2287 32.0829 47.1949 33.1167C46.1612 34.1505 44.759 34.7313 43.297 34.7313ZM43.297 48.5125C41.835 48.5125 40.4329 47.9317 39.3991 46.8979C38.3653 45.8641 37.7845 44.462 37.7845 43C37.7845 41.538 38.3653 40.1359 39.3991 39.1021C40.4329 38.0683 41.835 37.4875 43.297 37.4875C46.3565 37.4875 48.8095 39.9406 48.8095 43C48.8095 44.462 48.2287 45.8641 47.1949 46.8979C46.1612 47.9317 44.759 48.5125 43.297 48.5125ZM43.297 62.2937C41.835 62.2937 40.4329 61.7129 39.3991 60.6791C38.3653 59.6454 37.7845 58.2432 37.7845 56.7812C37.7845 55.3192 38.3653 53.9171 39.3991 52.8833C40.4329 51.8495 41.835 51.2687 43.297 51.2687C46.3565 51.2687 48.8095 53.7218 48.8095 56.7812C48.8095 58.2432 48.2287 59.6454 47.1949 60.6791C46.1612 61.7129 44.759 62.2937 43.297 62.2937ZM65.347 37.4875H57.0783V34.3454C61.819 33.1051 65.347 28.8329 65.347 23.7063H57.0783V20.95C57.0783 20.219 56.7879 19.518 56.271 19.0011C55.7541 18.4842 55.053 18.1938 54.322 18.1938H32.272C31.541 18.1938 30.84 18.4842 30.3231 19.0011C29.8062 19.518 29.5158 20.219 29.5158 20.95V23.7063H21.2471C21.2471 28.8329 24.7751 33.1051 29.5158 34.3454V37.4875H21.2471C21.2471 42.6141 24.7751 46.8863 29.5158 48.1266V51.2687H21.2471C21.2471 56.3954 24.7751 60.6675 29.5158 61.9078V65.05C29.5158 65.781 29.8062 66.482 30.3231 66.9989C30.84 67.5158 31.541 67.8062 32.272 67.8062H54.322C55.053 67.8062 55.7541 67.5158 56.271 66.9989C56.7879 66.482 57.0783 65.781 57.0783 65.05V61.9078C61.819 60.6675 65.347 56.3954 65.347 51.2687H57.0783V48.1266C61.819 46.8863 65.347 42.6141 65.347 37.4875Z" fill="#2B2B2B"/>
</g>
<defs>
<clipPath id="clip0_1_1049">
<rect width="49.6124" height="49.6124" fill="white" transform="translate(18.4907 18.1938)"/>
</clipPath>
</defs>
</svg>
