<svg width="86" height="86" viewBox="0 0 86 86" fill="none" xmlns="http://www.w3.org/2000/svg">
<rect x="1.6" y="1.6" width="82.8" height="82.8" rx="3.73333" fill="white"/>
<rect x="1.6" y="1.6" width="82.8" height="82.8" rx="3.73333" stroke="#2B2B2B" stroke-width="3.2"/>
<path d="M67.3718 48.9785C68.4875 45.913 67.3802 42.5804 64.8731 40.7467C64.9086 40.6596 64.9426 40.5716 64.975 40.4825C66.3282 36.7646 64.4112 32.6536 60.6933 31.3004C58.7899 30.6076 56.7833 30.772 55.0965 31.5964C54.3343 29.8807 52.903 28.465 50.9995 27.7722C47.2815 26.4189 43.1706 28.3359 41.8173 32.0538C41.804 32.0904 41.791 32.127 41.7784 32.1637C41.7684 32.1922 41.7589 32.2207 41.7493 32.2493C39.0142 31.9529 36.3203 33.2662 34.8756 35.6261L25.047 32.0489L22.7206 34.2516L33.8955 38.3189C33.4852 41.0555 34.7048 43.7931 36.9904 45.3242C36.9794 45.3521 36.9684 45.3802 36.9577 45.4084C36.9437 45.4446 36.9302 45.4811 36.9169 45.5176C35.5637 49.2355 37.4807 53.3466 41.1986 54.6997C43.1022 55.3925 45.1087 55.228 46.7954 54.4037C47.5576 56.1194 48.9891 57.5351 50.8925 58.228C54.6104 59.5812 58.7214 57.6643 60.0746 53.9463C60.107 53.8573 60.1376 53.7679 60.1663 53.6784C63.2656 53.8852 66.256 52.044 67.3718 48.9785Z" fill="#2B2B2B"/>
<path d="M21.059 34.7886L18.1934 33.3558V58.5728H21.059V34.7886Z" fill="#2B2B2B"/>
</svg>
