<svg width="86" height="86" viewBox="0 0 86 86" fill="none" xmlns="http://www.w3.org/2000/svg">
<rect x="1.6" y="1.6" width="82.8" height="82.8" rx="3.73333" fill="white"/>
<rect x="1.6" y="1.6" width="82.8" height="82.8" rx="3.73333" stroke="#2B2B2B" stroke-width="3.2"/>
<path d="M66.9796 47.411V44.0336H63.5752L62.0184 47.5951V47.8758L66.9796 47.411Z" fill="#2B2B2B"/>
<path d="M66.9796 51.8867L63.8109 53.7428L66.9796 55.5981V51.8867Z" fill="#2B2B2B"/>
<path d="M66.9796 60.0751L62.0184 59.6124V59.8963L63.7582 63.8786H66.9796V60.0751Z" fill="#2B2B2B"/>
<path d="M42.6652 66.3496L45.6112 59.6005L31.8961 60.8854C34.1215 64.1795 37.8926 66.3592 42.1734 66.3592C42.3381 66.3592 42.502 66.356 42.6652 66.3496Z" fill="#2B2B2B"/>
<path d="M31.7855 60.7187C31.4135 60.1486 31.0873 59.5464 30.8122 58.9174H22.3284V63.8786H17.3672V44.0336H22.3284V48.9949H30.837C31.1591 48.2539 31.5515 47.5515 32.006 46.8953L43.6873 53.735L31.7855 60.7187Z" fill="#2B2B2B"/>
<path d="M32.1971 46.6272C33.4757 44.8824 35.2023 43.4862 37.2122 42.5949V39.0724H32.2509V34.1112H52.0959V37.8287L51.815 39.0724H47.1346V41.2046L39.9533 34.9349L45.6126 47.888L32.1971 46.6272Z" fill="#2B2B2B"/>
<path d="M29.7703 16.7468H54.5765C55.9408 16.7468 57.0571 17.8631 57.0571 19.2274C57.0571 20.5918 55.9408 21.7081 54.5765 21.7081H47.1346V24.1887H44.654V31.6305H39.6928V24.1887H37.2122V21.7081H29.7703C28.4059 21.7081 27.2897 20.5918 27.2897 19.2274C27.2897 17.8631 28.4059 16.7468 29.7703 16.7468Z" fill="#2B2B2B"/>
<path d="M68.6333 48.9557L59.1768 49.8417L62.9504 41.2088L55.8231 47.4285L53.7514 38.2455L51.6779 47.4276L44.552 41.2064L48.3249 49.8418L38.8659 48.9529L47.0414 53.7398L38.8675 58.5361L48.324 57.6501L44.5527 66.29L51.68 60.0704L53.7518 69.2533L55.8229 60.0642L62.9488 66.2854L59.1759 57.65L68.6326 58.5319L60.4571 53.745L68.6333 48.9557Z" fill="#2B2B2B"/>
</svg>
