<svg width="86" height="86" viewBox="0 0 86 86" fill="none" xmlns="http://www.w3.org/2000/svg">
<rect x="1.6" y="1.6" width="82.8" height="82.8" rx="3.73333" fill="white"/>
<rect x="1.6" y="1.6" width="82.8" height="82.8" rx="3.73333" stroke="#2B2B2B" stroke-width="3.2"/>
<path d="M58.1195 41.1101L48.4333 41.5826L53.8671 35.4401C54.3396 34.7313 54.5758 33.5501 54.3396 32.3688C54.1033 31.6601 53.8671 30.9513 53.1583 30.4788L40.4008 22.9188C39.4558 22.2101 38.0383 22.4463 37.0933 23.1551L30.7146 29.0613C29.5333 30.2426 29.2971 31.8963 30.4783 33.0776C31.4233 34.2588 33.3133 34.2588 34.4946 33.3138L39.2196 29.0613L43.7083 31.6601L33.7858 41.8188C33.5496 42.0551 33.5496 42.2913 33.3133 42.2913C32.1321 42.7638 30.9508 43.2363 30.0058 43.945L33.5496 47.4888C34.7308 47.0163 35.9121 46.5438 37.0933 46.5438C41.5821 46.5438 45.3621 50.3238 45.3621 54.8125C45.3621 56.23 45.1258 57.4113 44.4171 58.3563L47.9608 61.9C49.3783 59.7738 50.0871 57.4113 50.0871 54.8125C50.0871 51.9775 49.1421 49.1425 47.4883 47.0163L55.2846 46.3075L54.8121 57.6475C54.5758 59.3013 55.7571 60.4825 57.4108 60.7188H57.647C59.0645 60.7188 60.2458 59.5375 60.482 58.12L60.9545 44.1813C60.9545 43.4725 60.7183 42.5276 60.2458 42.0551C59.537 41.3463 58.8283 41.1101 58.1195 41.1101ZM57.1745 27.6438C58.4277 27.6438 59.6295 27.146 60.5156 26.2599C61.4017 25.3738 61.8995 24.172 61.8995 22.9188C61.8995 21.6657 61.4017 20.4639 60.5156 19.5778C59.6295 18.6917 58.4277 18.1938 57.1745 18.1938C55.9214 18.1938 54.7196 18.6917 53.8335 19.5778C52.9474 20.4639 52.4496 21.6657 52.4496 22.9188C52.4496 24.172 52.9474 25.3738 53.8335 26.2599C54.7196 27.146 55.9214 27.6438 57.1745 27.6438ZM44.1808 65.68C42.0546 67.0975 39.6921 67.8063 37.0933 67.8063C30.0058 67.8063 24.0996 61.9 24.0996 54.8125C24.0996 52.2138 24.8084 49.8513 26.2259 47.725L29.7696 51.2688C29.2971 52.45 28.8246 53.6313 28.8246 54.8125C28.8246 59.3013 32.6046 63.0813 37.0933 63.0813C38.5108 63.0813 39.6921 62.845 40.6371 62.1363L44.1808 65.68Z" fill="#2B2B2B"/>
</svg>
